  0
SECTION
  2
BLOCKS
  0
ENDSEC
  0
SECTION
  2
ENTITIES
  0
LINE
  8
0
 10
2.5909
 20
-99.1891
 11
5.0685
 21
-98.3841
  0
LINE
  8
0
 10
5.0685
 20
-98.3841
 11
7.32466
 21
-97.0815
  0
LINE
  8
0
 10
7.32466
 20
-97.0815
 11
9.26064
 21
-95.3383
  0
LINE
  8
0
 10
9.26064
 20
-95.3383
 11
10.7919
 21
-93.2307
  0
LINE
  8
0
 10
10.7919
 20
-93.2307
 11
11.8515
 21
-90.8508
  0
LINE
  8
0
 10
11.8515
 20
-90.8508
 11
12.3932
 21
-88.3026
  0
LINE
  8
0
 10
12.3932
 20
-88.3026
 11
12.3932
 21
-85.6974
  0
LINE
  8
0
 10
12.3932
 20
-85.6974
 11
11.8515
 21
-83.1492
  0
LINE
  8
0
 10
11.8515
 20
-83.1492
 11
10.7919
 21
-80.7693
  0
LINE
  8
0
 10
10.7919
 20
-80.7693
 11
9.26065
 21
-78.6617
  0
LINE
  8
0
 10
9.26065
 20
-78.6617
 11
7.8161
 21
-77.361
  0
LINE
  8
0
 10
7.8161
 20
-77.361
 11
6.83688
 21
-76.2735
  0
LINE
  8
0
 10
6.83688
 20
-76.2735
 11
6.10519
 21
-75.0061
  0
LINE
  8
0
 10
6.10519
 20
-75.0061
 11
5.65297
 21
-73.6144
  0
LINE
  8
0
 10
5.65297
 20
-73.6144
 11
5.5
 21
-72.159
  0
LINE
  8
0
 10
5.5
 20
-72.159
 11
5.5
 21
-67.4981
  0
LINE
  8
0
 10
5.5
 20
-67.4981
 11
5.65297
 21
-66.0427
  0
LINE
  8
0
 10
5.65297
 20
-66.0427
 11
6.10518
 21
-64.651
  0
LINE
  8
0
 10
6.10518
 20
-64.651
 11
6.83688
 21
-63.3836
  0
LINE
  8
0
 10
6.83688
 20
-63.3836
 11
7.81609
 21
-62.2961
  0
LINE
  8
0
 10
7.81609
 20
-62.2961
 11
9
 21
-61.4359
  0
LINE
  8
0
 10
9
 20
-61.4359
 11
11.0446
 21
-60.6511
  0
LINE
  8
0
 10
11.0446
 20
-60.6511
 11
19.1471
 21
-58.9288
  0
LINE
  8
0
 10
19.1471
 20
-58.9288
 11
30.9807
 21
-53.6602
  0
LINE
  8
0
 10
30.9807
 20
-53.6602
 11
41.4603
 21
-46.0463
  0
LINE
  8
0
 10
41.4603
 20
-46.0463
 11
50.1278
 21
-36.42
  0
LINE
  8
0
 10
50.1278
 20
-36.42
 11
56.6046
 21
-25.202
  0
LINE
  8
0
 10
56.6046
 20
-25.202
 11
60.6074
 21
-12.8825
  0
LINE
  8
0
 10
60.6074
 20
-12.8825
 11
60.7245
 21
-11.7683
  0
LINE
  8
0
 10
60.7245
 20
-11.7683
 11
61.0288
 21
-10.3369
  0
LINE
  8
0
 10
61.0288
 20
-10.3369
 11
61.624
 21
-8.99998
  0
LINE
  8
0
 10
61.624
 20
-8.99998
 11
62.4842
 21
-7.81607
  0
LINE
  8
0
 10
62.4842
 20
-7.81607
 11
63.5717
 21
-6.83687
  0
LINE
  8
0
 10
63.5717
 20
-6.83687
 11
64.8391
 21
-6.10518
  0
LINE
  8
0
 10
64.8391
 20
-6.10518
 11
66.2308
 21
-5.65297
  0
LINE
  8
0
 10
66.2308
 20
-5.65297
 11
67.6862
 21
-5.5
  0
LINE
  8
0
 10
67.6862
 20
-5.5
 11
72.159
 21
-5.5
  0
LINE
  8
0
 10
72.159
 20
-5.5
 11
73.6144
 21
-5.65297
  0
LINE
  8
0
 10
73.6144
 20
-5.65297
 11
75.0061
 21
-6.10518
  0
LINE
  8
0
 10
75.0061
 20
-6.10518
 11
76.2735
 21
-6.83688
  0
LINE
  8
0
 10
76.2735
 20
-6.83688
 11
77.361
 21
-7.8161
  0
LINE
  8
0
 10
77.361
 20
-7.8161
 11
78.6617
 21
-9.26065
  0
LINE
  8
0
 10
78.6617
 20
-9.26065
 11
80.7693
 21
-10.7919
  0
LINE
  8
0
 10
80.7693
 20
-10.7919
 11
83.1492
 21
-11.8515
  0
LINE
  8
0
 10
83.1492
 20
-11.8515
 11
85.6974
 21
-12.3932
  0
LINE
  8
0
 10
85.6974
 20
-12.3932
 11
88.3026
 21
-12.3932
  0
LINE
  8
0
 10
88.3026
 20
-12.3932
 11
90.8508
 21
-11.8515
  0
LINE
  8
0
 10
90.8508
 20
-11.8515
 11
93.2307
 21
-10.7919
  0
LINE
  8
0
 10
93.2307
 20
-10.7919
 11
95.3383
 21
-9.26064
  0
LINE
  8
0
 10
95.3383
 20
-9.26064
 11
97.0815
 21
-7.32466
  0
LINE
  8
0
 10
97.0815
 20
-7.32466
 11
98.3841
 21
-5.0685
  0
LINE
  8
0
 10
98.3841
 20
-5.0685
 11
99.1891
 21
-2.5909
  0
LINE
  8
0
 10
99.1891
 20
-2.5909
 11
99.4614
 21
0
  0
LINE
  8
0
 10
99.4614
 20
0
 11
99.1891
 21
2.5909
  0
LINE
  8
0
 10
99.1891
 20
2.5909
 11
98.3841
 21
5.0685
  0
LINE
  8
0
 10
98.3841
 20
5.0685
 11
97.0815
 21
7.32466
  0
LINE
  8
0
 10
97.0815
 20
7.32466
 11
95.3383
 21
9.26064
  0
LINE
  8
0
 10
95.3383
 20
9.26064
 11
93.2307
 21
10.7919
  0
LINE
  8
0
 10
93.2307
 20
10.7919
 11
90.8508
 21
11.8515
  0
LINE
  8
0
 10
90.8508
 20
11.8515
 11
88.3026
 21
12.3932
  0
LINE
  8
0
 10
88.3026
 20
12.3932
 11
85.6974
 21
12.3932
  0
LINE
  8
0
 10
85.6974
 20
12.3932
 11
83.1492
 21
11.8515
  0
LINE
  8
0
 10
83.1492
 20
11.8515
 11
80.7693
 21
10.7919
  0
LINE
  8
0
 10
80.7693
 20
10.7919
 11
78.6617
 21
9.26065
  0
LINE
  8
0
 10
78.6617
 20
9.26065
 11
77.361
 21
7.8161
  0
LINE
  8
0
 10
77.361
 20
7.8161
 11
76.2735
 21
6.83688
  0
LINE
  8
0
 10
76.2735
 20
6.83688
 11
75.0061
 21
6.10519
  0
LINE
  8
0
 10
75.0061
 20
6.10519
 11
73.6144
 21
5.65297
  0
LINE
  8
0
 10
73.6144
 20
5.65297
 11
72.159
 21
5.5
  0
LINE
  8
0
 10
72.159
 20
5.5
 11
67.6862
 21
5.5
  0
LINE
  8
0
 10
67.6862
 20
5.5
 11
66.2308
 21
5.65297
  0
LINE
  8
0
 10
66.2308
 20
5.65297
 11
64.839
 21
6.10518
  0
LINE
  8
0
 10
64.839
 20
6.10518
 11
63.5717
 21
6.83688
  0
LINE
  8
0
 10
63.5717
 20
6.83688
 11
62.4842
 21
7.81609
  0
LINE
  8
0
 10
62.4842
 20
7.81609
 11
61.624
 21
9
  0
LINE
  8
0
 10
61.624
 20
9
 11
61.0288
 21
10.3369
  0
LINE
  8
0
 10
61.0288
 20
10.3369
 11
60.7245
 21
11.7683
  0
LINE
  8
0
 10
60.7245
 20
11.7683
 11
60.6074
 21
12.8825
  0
LINE
  8
0
 10
60.6074
 20
12.8825
 11
56.6046
 21
25.202
  0
LINE
  8
0
 10
56.6046
 20
25.202
 11
50.1278
 21
36.42
  0
LINE
  8
0
 10
50.1278
 20
36.42
 11
41.4603
 21
46.0463
  0
LINE
  8
0
 10
41.4603
 20
46.0463
 11
30.9807
 21
53.6602
  0
LINE
  8
0
 10
30.9807
 20
53.6602
 11
19.1471
 21
58.9288
  0
LINE
  8
0
 10
19.1471
 20
58.9288
 11
11.0446
 21
60.6511
  0
LINE
  8
0
 10
11.0446
 20
60.6511
 11
9.65283
 21
61.1033
  0
LINE
  8
0
 10
9.65283
 20
61.1033
 11
8.3855
 21
61.835
  0
LINE
  8
0
 10
8.3855
 20
61.835
 11
7.29799
 21
62.8142
  0
LINE
  8
0
 10
7.29799
 20
62.8142
 11
6.43782
 21
63.9981
  0
LINE
  8
0
 10
6.43782
 20
63.9981
 11
5.84261
 21
65.335
  0
LINE
  8
0
 10
5.84261
 20
65.335
 11
5.5
 21
67.4981
  0
LINE
  8
0
 10
5.5
 20
67.4981
 11
5.5
 21
72.159
  0
LINE
  8
0
 10
5.5
 20
72.159
 11
5.65297
 21
73.6144
  0
LINE
  8
0
 10
5.65297
 20
73.6144
 11
6.10518
 21
75.0061
  0
LINE
  8
0
 10
6.10518
 20
75.0061
 11
6.83688
 21
76.2735
  0
LINE
  8
0
 10
6.83688
 20
76.2735
 11
7.8161
 21
77.361
  0
LINE
  8
0
 10
7.8161
 20
77.361
 11
9.26065
 21
78.6617
  0
LINE
  8
0
 10
9.26065
 20
78.6617
 11
10.7919
 21
80.7693
  0
LINE
  8
0
 10
10.7919
 20
80.7693
 11
11.8515
 21
83.1492
  0
LINE
  8
0
 10
11.8515
 20
83.1492
 11
12.3932
 21
85.6974
  0
LINE
  8
0
 10
12.3932
 20
85.6974
 11
12.3932
 21
88.3026
  0
LINE
  8
0
 10
12.3932
 20
88.3026
 11
11.8515
 21
90.8508
  0
LINE
  8
0
 10
11.8515
 20
90.8508
 11
10.7919
 21
93.2307
  0
LINE
  8
0
 10
10.7919
 20
93.2307
 11
9.26064
 21
95.3383
  0
LINE
  8
0
 10
9.26064
 20
95.3383
 11
7.32466
 21
97.0815
  0
LINE
  8
0
 10
7.32466
 20
97.0815
 11
5.0685
 21
98.3841
  0
LINE
  8
0
 10
5.0685
 20
98.3841
 11
2.5909
 21
99.1891
  0
LINE
  8
0
 10
2.5909
 20
99.1891
 11
0
 21
99.4614
  0
LINE
  8
0
 10
0
 20
99.4614
 11
-2.5909
 21
99.1891
  0
LINE
  8
0
 10
-2.5909
 20
99.1891
 11
-5.0685
 21
98.3841
  0
LINE
  8
0
 10
-5.0685
 20
98.3841
 11
-7.32466
 21
97.0815
  0
LINE
  8
0
 10
-7.32466
 20
97.0815
 11
-9.26064
 21
95.3383
  0
LINE
  8
0
 10
-9.26064
 20
95.3383
 11
-10.7919
 21
93.2307
  0
LINE
  8
0
 10
-10.7919
 20
93.2307
 11
-11.8515
 21
90.8508
  0
LINE
  8
0
 10
-11.8515
 20
90.8508
 11
-12.3932
 21
88.3026
  0
LINE
  8
0
 10
-12.3932
 20
88.3026
 11
-12.3932
 21
85.6974
  0
LINE
  8
0
 10
-12.3932
 20
85.6974
 11
-11.8515
 21
83.1492
  0
LINE
  8
0
 10
-11.8515
 20
83.1492
 11
-10.7919
 21
80.7693
  0
LINE
  8
0
 10
-10.7919
 20
80.7693
 11
-9.26065
 21
78.6617
  0
LINE
  8
0
 10
-9.26065
 20
78.6617
 11
-7.8161
 21
77.361
  0
LINE
  8
0
 10
-7.8161
 20
77.361
 11
-6.83688
 21
76.2735
  0
LINE
  8
0
 10
-6.83688
 20
76.2735
 11
-6.10519
 21
75.0061
  0
LINE
  8
0
 10
-6.10519
 20
75.0061
 11
-5.65297
 21
73.6144
  0
LINE
  8
0
 10
-5.65297
 20
73.6144
 11
-5.5
 21
72.159
  0
LINE
  8
0
 10
-5.5
 20
72.159
 11
-5.5
 21
67.4981
  0
LINE
  8
0
 10
-5.5
 20
67.4981
 11
-5.65297
 21
66.0427
  0
LINE
  8
0
 10
-5.65297
 20
66.0427
 11
-6.10518
 21
64.651
  0
LINE
  8
0
 10
-6.10518
 20
64.651
 11
-6.83688
 21
63.3836
  0
LINE
  8
0
 10
-6.83688
 20
63.3836
 11
-7.81609
 21
62.2961
  0
LINE
  8
0
 10
-7.81609
 20
62.2961
 11
-9
 21
61.4359
  0
LINE
  8
0
 10
-9
 20
61.4359
 11
-11.0446
 21
60.6511
  0
LINE
  8
0
 10
-11.0446
 20
60.6511
 11
-19.1471
 21
58.9288
  0
LINE
  8
0
 10
-19.1471
 20
58.9288
 11
-30.9807
 21
53.6602
  0
LINE
  8
0
 10
-30.9807
 20
53.6602
 11
-41.4603
 21
46.0463
  0
LINE
  8
0
 10
-41.4603
 20
46.0463
 11
-50.1278
 21
36.42
  0
LINE
  8
0
 10
-50.1278
 20
36.42
 11
-56.6046
 21
25.202
  0
LINE
  8
0
 10
-56.6046
 20
25.202
 11
-60.6074
 21
12.8825
  0
LINE
  8
0
 10
-60.6074
 20
12.8825
 11
-60.7245
 21
11.7683
  0
LINE
  8
0
 10
-60.7245
 20
11.7683
 11
-61.0288
 21
10.3369
  0
LINE
  8
0
 10
-61.0288
 20
10.3369
 11
-61.624
 21
8.99998
  0
LINE
  8
0
 10
-61.624
 20
8.99998
 11
-62.4842
 21
7.81607
  0
LINE
  8
0
 10
-62.4842
 20
7.81607
 11
-63.5717
 21
6.83687
  0
LINE
  8
0
 10
-63.5717
 20
6.83687
 11
-64.8391
 21
6.10518
  0
LINE
  8
0
 10
-64.8391
 20
6.10518
 11
-66.2308
 21
5.65297
  0
LINE
  8
0
 10
-66.2308
 20
5.65297
 11
-67.6862
 21
5.5
  0
LINE
  8
0
 10
-67.6862
 20
5.5
 11
-72.159
 21
5.5
  0
LINE
  8
0
 10
-72.159
 20
5.5
 11
-73.6144
 21
5.65297
  0
LINE
  8
0
 10
-73.6144
 20
5.65297
 11
-75.0061
 21
6.10518
  0
LINE
  8
0
 10
-75.0061
 20
6.10518
 11
-76.2735
 21
6.83688
  0
LINE
  8
0
 10
-76.2735
 20
6.83688
 11
-77.361
 21
7.8161
  0
LINE
  8
0
 10
-77.361
 20
7.8161
 11
-78.6617
 21
9.26065
  0
LINE
  8
0
 10
-78.6617
 20
9.26065
 11
-80.7693
 21
10.7919
  0
LINE
  8
0
 10
-80.7693
 20
10.7919
 11
-83.1492
 21
11.8515
  0
LINE
  8
0
 10
-83.1492
 20
11.8515
 11
-85.6974
 21
12.3932
  0
LINE
  8
0
 10
-85.6974
 20
12.3932
 11
-88.3026
 21
12.3932
  0
LINE
  8
0
 10
-88.3026
 20
12.3932
 11
-90.8508
 21
11.8515
  0
LINE
  8
0
 10
-90.8508
 20
11.8515
 11
-93.2307
 21
10.7919
  0
LINE
  8
0
 10
-93.2307
 20
10.7919
 11
-95.3383
 21
9.26064
  0
LINE
  8
0
 10
-95.3383
 20
9.26064
 11
-97.0815
 21
7.32466
  0
LINE
  8
0
 10
-97.0815
 20
7.32466
 11
-98.3841
 21
5.0685
  0
LINE
  8
0
 10
-98.3841
 20
5.0685
 11
-99.1891
 21
2.5909
  0
LINE
  8
0
 10
-99.1891
 20
2.5909
 11
-99.4614
 21
0
  0
LINE
  8
0
 10
-99.4614
 20
0
 11
-99.1891
 21
-2.5909
  0
LINE
  8
0
 10
-99.1891
 20
-2.5909
 11
-98.3841
 21
-5.0685
  0
LINE
  8
0
 10
-98.3841
 20
-5.0685
 11
-97.0815
 21
-7.32466
  0
LINE
  8
0
 10
-97.0815
 20
-7.32466
 11
-95.3383
 21
-9.26064
  0
LINE
  8
0
 10
-95.3383
 20
-9.26064
 11
-93.2307
 21
-10.7919
  0
LINE
  8
0
 10
-93.2307
 20
-10.7919
 11
-90.8508
 21
-11.8515
  0
LINE
  8
0
 10
-90.8508
 20
-11.8515
 11
-88.3026
 21
-12.3932
  0
LINE
  8
0
 10
-88.3026
 20
-12.3932
 11
-85.6974
 21
-12.3932
  0
LINE
  8
0
 10
-85.6974
 20
-12.3932
 11
-83.1492
 21
-11.8515
  0
LINE
  8
0
 10
-83.1492
 20
-11.8515
 11
-80.7693
 21
-10.7919
  0
LINE
  8
0
 10
-80.7693
 20
-10.7919
 11
-78.6617
 21
-9.26065
  0
LINE
  8
0
 10
-78.6617
 20
-9.26065
 11
-77.361
 21
-7.8161
  0
LINE
  8
0
 10
-77.361
 20
-7.8161
 11
-76.2735
 21
-6.83688
  0
LINE
  8
0
 10
-76.2735
 20
-6.83688
 11
-75.0061
 21
-6.10519
  0
LINE
  8
0
 10
-75.0061
 20
-6.10519
 11
-73.6144
 21
-5.65297
  0
LINE
  8
0
 10
-73.6144
 20
-5.65297
 11
-72.159
 21
-5.5
  0
LINE
  8
0
 10
-72.159
 20
-5.5
 11
-67.6862
 21
-5.5
  0
LINE
  8
0
 10
-67.6862
 20
-5.5
 11
-66.2308
 21
-5.65297
  0
LINE
  8
0
 10
-66.2308
 20
-5.65297
 11
-64.839
 21
-6.10518
  0
LINE
  8
0
 10
-64.839
 20
-6.10518
 11
-63.5717
 21
-6.83688
  0
LINE
  8
0
 10
-63.5717
 20
-6.83688
 11
-62.4842
 21
-7.81609
  0
LINE
  8
0
 10
-62.4842
 20
-7.81609
 11
-61.624
 21
-9
  0
LINE
  8
0
 10
-61.624
 20
-9
 11
-61.0288
 21
-10.3369
  0
LINE
  8
0
 10
-61.0288
 20
-10.3369
 11
-60.7245
 21
-11.7683
  0
LINE
  8
0
 10
-60.7245
 20
-11.7683
 11
-60.6074
 21
-12.8825
  0
LINE
  8
0
 10
-60.6074
 20
-12.8825
 11
-56.6046
 21
-25.202
  0
LINE
  8
0
 10
-56.6046
 20
-25.202
 11
-50.1278
 21
-36.42
  0
LINE
  8
0
 10
-50.1278
 20
-36.42
 11
-41.4603
 21
-46.0463
  0
LINE
  8
0
 10
-41.4603
 20
-46.0463
 11
-30.9807
 21
-53.6602
  0
LINE
  8
0
 10
-30.9807
 20
-53.6602
 11
-19.1471
 21
-58.9288
  0
LINE
  8
0
 10
-19.1471
 20
-58.9288
 11
-11.0446
 21
-60.6511
  0
LINE
  8
0
 10
-11.0446
 20
-60.6511
 11
-9.65283
 21
-61.1033
  0
LINE
  8
0
 10
-9.65283
 20
-61.1033
 11
-8.3855
 21
-61.835
  0
LINE
  8
0
 10
-8.3855
 20
-61.835
 11
-7.29799
 21
-62.8142
  0
LINE
  8
0
 10
-7.29799
 20
-62.8142
 11
-6.43782
 21
-63.9981
  0
LINE
  8
0
 10
-6.43782
 20
-63.9981
 11
-5.84261
 21
-65.335
  0
LINE
  8
0
 10
-5.84261
 20
-65.335
 11
-5.5
 21
-67.4981
  0
LINE
  8
0
 10
-5.5
 20
-67.4981
 11
-5.5
 21
-72.159
  0
LINE
  8
0
 10
-5.5
 20
-72.159
 11
-5.65297
 21
-73.6144
  0
LINE
  8
0
 10
-5.65297
 20
-73.6144
 11
-6.10518
 21
-75.0061
  0
LINE
  8
0
 10
-6.10518
 20
-75.0061
 11
-6.83688
 21
-76.2735
  0
LINE
  8
0
 10
-6.83688
 20
-76.2735
 11
-7.8161
 21
-77.361
  0
LINE
  8
0
 10
-7.8161
 20
-77.361
 11
-9.26065
 21
-78.6617
  0
LINE
  8
0
 10
-9.26065
 20
-78.6617
 11
-10.7919
 21
-80.7693
  0
LINE
  8
0
 10
-10.7919
 20
-80.7693
 11
-11.8515
 21
-83.1492
  0
LINE
  8
0
 10
-11.8515
 20
-83.1492
 11
-12.3932
 21
-85.6974
  0
LINE
  8
0
 10
-12.3932
 20
-85.6974
 11
-12.3932
 21
-88.3026
  0
LINE
  8
0
 10
-12.3932
 20
-88.3026
 11
-11.8515
 21
-90.8508
  0
LINE
  8
0
 10
-11.8515
 20
-90.8508
 11
-10.7919
 21
-93.2307
  0
LINE
  8
0
 10
-10.7919
 20
-93.2307
 11
-9.26064
 21
-95.3383
  0
LINE
  8
0
 10
-9.26064
 20
-95.3383
 11
-7.32466
 21
-97.0815
  0
LINE
  8
0
 10
-7.32466
 20
-97.0815
 11
-5.0685
 21
-98.3841
  0
LINE
  8
0
 10
-5.0685
 20
-98.3841
 11
-2.5909
 21
-99.1891
  0
LINE
  8
0
 10
-2.5909
 20
-99.1891
 11
0
 21
-99.4614
  0
LINE
  8
0
 10
0
 20
-99.4614
 11
2.5909
 21
-99.1891
  0
LINE
  8
0
 10
-1.49178
 20
96.05
 11
-1.49178
 21
96.1568
  0
LINE
  8
0
 10
-1.49178
 20
96.1568
 11
-1.42657
 21
96.4635
  0
LINE
  8
0
 10
-1.42657
 20
96.4635
 11
-1.29903
 21
96.75
  0
LINE
  8
0
 10
-1.29903
 20
96.75
 11
-1.11472
 21
97.0037
  0
LINE
  8
0
 10
-1.11472
 20
97.0037
 11
-0.881668
 21
97.2135
  0
LINE
  8
0
 10
-0.881668
 20
97.2135
 11
-0.610092
 21
97.3703
  0
LINE
  8
0
 10
-0.610092
 20
97.3703
 11
-0.311859
 21
97.4672
  0
LINE
  8
0
 10
-0.311859
 20
97.4672
 11
-0.0499878
 21
97.4948
  0
LINE
  8
0
 10
-0.0499878
 20
97.4948
 11
-0.0499878
 21
96.05
  0
LINE
  8
0
 10
-0.0499878
 20
96.05
 11
-1.49178
 21
96.05
  0
LINE
  8
0
 10
0.0499878
 20
96.05
 11
0.0499878
 21
97.4948
  0
LINE
  8
0
 10
0.0499878
 20
97.4948
 11
0.311859
 21
97.4672
  0
LINE
  8
0
 10
0.311859
 20
97.4672
 11
0.610092
 21
97.3703
  0
LINE
  8
0
 10
0.610092
 20
97.3703
 11
0.881668
 21
97.2135
  0
LINE
  8
0
 10
0.881668
 20
97.2135
 11
1.11472
 21
97.0037
  0
LINE
  8
0
 10
1.11472
 20
97.0037
 11
1.29903
 21
96.75
  0
LINE
  8
0
 10
1.29903
 20
96.75
 11
1.42657
 21
96.4635
  0
LINE
  8
0
 10
1.42657
 20
96.4635
 11
1.49178
 21
96.1568
  0
LINE
  8
0
 10
1.49178
 20
96.1568
 11
1.49178
 21
96.05
  0
LINE
  8
0
 10
1.49178
 20
96.05
 11
0.0499878
 21
96.05
  0
LINE
  8
0
 10
-0.311859
 20
94.5328
 11
-0.610092
 21
94.6297
  0
LINE
  8
0
 10
-0.610092
 20
94.6297
 11
-0.881668
 21
94.7865
  0
LINE
  8
0
 10
-0.881668
 20
94.7865
 11
-1.11472
 21
94.9963
  0
LINE
  8
0
 10
-1.11472
 20
94.9963
 11
-1.29903
 21
95.25
  0
LINE
  8
0
 10
-1.29903
 20
95.25
 11
-1.42657
 21
95.5365
  0
LINE
  8
0
 10
-1.42657
 20
95.5365
 11
-1.49178
 21
95.8432
  0
LINE
  8
0
 10
-1.49178
 20
95.8432
 11
-1.49178
 21
95.95
  0
LINE
  8
0
 10
-1.49178
 20
95.95
 11
-0.0499878
 21
95.95
  0
LINE
  8
0
 10
-0.0499878
 20
95.95
 11
-0.0499878
 21
94.5052
  0
LINE
  8
0
 10
-0.0499878
 20
94.5052
 11
-0.311859
 21
94.5328
  0
LINE
  8
0
 10
0.0499878
 20
95.95
 11
1.49178
 21
95.95
  0
LINE
  8
0
 10
1.49178
 20
95.95
 11
1.49178
 21
95.8432
  0
LINE
  8
0
 10
1.49178
 20
95.8432
 11
1.42657
 21
95.5365
  0
LINE
  8
0
 10
1.42657
 20
95.5365
 11
1.29903
 21
95.25
  0
LINE
  8
0
 10
1.29903
 20
95.25
 11
1.11472
 21
94.9963
  0
LINE
  8
0
 10
1.11472
 20
94.9963
 11
0.881668
 21
94.7865
  0
LINE
  8
0
 10
0.881668
 20
94.7865
 11
0.610092
 21
94.6297
  0
LINE
  8
0
 10
0.610092
 20
94.6297
 11
0.311859
 21
94.5328
  0
LINE
  8
0
 10
0.311859
 20
94.5328
 11
0.0499878
 21
94.5052
  0
LINE
  8
0
 10
0.0499878
 20
94.5052
 11
0.0499878
 21
95.95
  0
LINE
  8
0
 10
-1.49178
 20
87.05
 11
-1.49178
 21
87.1568
  0
LINE
  8
0
 10
-1.49178
 20
87.1568
 11
-1.42657
 21
87.4635
  0
LINE
  8
0
 10
-1.42657
 20
87.4635
 11
-1.29903
 21
87.75
  0
LINE
  8
0
 10
-1.29903
 20
87.75
 11
-1.11472
 21
88.0037
  0
LINE
  8
0
 10
-1.11472
 20
88.0037
 11
-0.881668
 21
88.2135
  0
LINE
  8
0
 10
-0.881668
 20
88.2135
 11
-0.610092
 21
88.3703
  0
LINE
  8
0
 10
-0.610092
 20
88.3703
 11
-0.311859
 21
88.4672
  0
LINE
  8
0
 10
-0.311859
 20
88.4672
 11
-0.0499878
 21
88.4948
  0
LINE
  8
0
 10
-0.0499878
 20
88.4948
 11
-0.0499878
 21
87.05
  0
LINE
  8
0
 10
-0.0499878
 20
87.05
 11
-1.49178
 21
87.05
  0
LINE
  8
0
 10
0.0499878
 20
87.05
 11
0.0499878
 21
88.4948
  0
LINE
  8
0
 10
0.0499878
 20
88.4948
 11
0.311859
 21
88.4672
  0
LINE
  8
0
 10
0.311859
 20
88.4672
 11
0.610092
 21
88.3703
  0
LINE
  8
0
 10
0.610092
 20
88.3703
 11
0.881668
 21
88.2135
  0
LINE
  8
0
 10
0.881668
 20
88.2135
 11
1.11472
 21
88.0037
  0
LINE
  8
0
 10
1.11472
 20
88.0037
 11
1.29903
 21
87.75
  0
LINE
  8
0
 10
1.29903
 20
87.75
 11
1.42657
 21
87.4635
  0
LINE
  8
0
 10
1.42657
 20
87.4635
 11
1.49178
 21
87.1568
  0
LINE
  8
0
 10
1.49178
 20
87.1568
 11
1.49178
 21
87.05
  0
LINE
  8
0
 10
1.49178
 20
87.05
 11
0.0499878
 21
87.05
  0
LINE
  8
0
 10
-10.4948
 20
87.05
 11
-10.4672
 21
87.3119
  0
LINE
  8
0
 10
-10.4672
 20
87.3119
 11
-10.3703
 21
87.6101
  0
LINE
  8
0
 10
-10.3703
 20
87.6101
 11
-10.2135
 21
87.8817
  0
LINE
  8
0
 10
-10.2135
 20
87.8817
 11
-10.0037
 21
88.1147
  0
LINE
  8
0
 10
-10.0037
 20
88.1147
 11
-9.75
 21
88.299
  0
LINE
  8
0
 10
-9.75
 20
88.299
 11
-9.46352
 21
88.4266
  0
LINE
  8
0
 10
-9.46352
 20
88.4266
 11
-9.15678
 21
88.4918
  0
LINE
  8
0
 10
-9.15678
 20
88.4918
 11
-9.04999
 21
88.4918
  0
LINE
  8
0
 10
-9.04999
 20
88.4918
 11
-9.04999
 21
87.05
  0
LINE
  8
0
 10
-9.04999
 20
87.05
 11
-10.4948
 21
87.05
  0
LINE
  8
0
 10
-8.95001
 20
87.05
 11
-8.95001
 21
88.4918
  0
LINE
  8
0
 10
-8.95001
 20
88.4918
 11
-8.84322
 21
88.4918
  0
LINE
  8
0
 10
-8.84322
 20
88.4918
 11
-8.53648
 21
88.4266
  0
LINE
  8
0
 10
-8.53648
 20
88.4266
 11
-8.25
 21
88.299
  0
LINE
  8
0
 10
-8.25
 20
88.299
 11
-7.99631
 21
88.1147
  0
LINE
  8
0
 10
-7.99631
 20
88.1147
 11
-7.78648
 21
87.8817
  0
LINE
  8
0
 10
-7.78648
 20
87.8817
 11
-7.62968
 21
87.6101
  0
LINE
  8
0
 10
-7.62968
 20
87.6101
 11
-7.53279
 21
87.3119
  0
LINE
  8
0
 10
-7.53279
 20
87.3119
 11
-7.50525
 21
87.05
  0
LINE
  8
0
 10
-7.50525
 20
87.05
 11
-8.95001
 21
87.05
  0
LINE
  8
0
 10
7.50525
 20
87.05
 11
7.53279
 21
87.3119
  0
LINE
  8
0
 10
7.53279
 20
87.3119
 11
7.62968
 21
87.6101
  0
LINE
  8
0
 10
7.62968
 20
87.6101
 11
7.78648
 21
87.8817
  0
LINE
  8
0
 10
7.78648
 20
87.8817
 11
7.99631
 21
88.1147
  0
LINE
  8
0
 10
7.99631
 20
88.1147
 11
8.25
 21
88.299
  0
LINE
  8
0
 10
8.25
 20
88.299
 11
8.53648
 21
88.4266
  0
LINE
  8
0
 10
8.53648
 20
88.4266
 11
8.84322
 21
88.4918
  0
LINE
  8
0
 10
8.84322
 20
88.4918
 11
8.95001
 21
88.4918
  0
LINE
  8
0
 10
8.95001
 20
88.4918
 11
8.95001
 21
87.05
  0
LINE
  8
0
 10
8.95001
 20
87.05
 11
7.50525
 21
87.05
  0
LINE
  8
0
 10
9.04999
 20
87.05
 11
9.04999
 21
88.4918
  0
LINE
  8
0
 10
9.04999
 20
88.4918
 11
9.15678
 21
88.4918
  0
LINE
  8
0
 10
9.15678
 20
88.4918
 11
9.46352
 21
88.4266
  0
LINE
  8
0
 10
9.46352
 20
88.4266
 11
9.75
 21
88.299
  0
LINE
  8
0
 10
9.75
 20
88.299
 11
10.0037
 21
88.1147
  0
LINE
  8
0
 10
10.0037
 20
88.1147
 11
10.2135
 21
87.8817
  0
LINE
  8
0
 10
10.2135
 20
87.8817
 11
10.3703
 21
87.6101
  0
LINE
  8
0
 10
10.3703
 20
87.6101
 11
10.4672
 21
87.3119
  0
LINE
  8
0
 10
10.4672
 20
87.3119
 11
10.4948
 21
87.05
  0
LINE
  8
0
 10
10.4948
 20
87.05
 11
9.04999
 21
87.05
  0
LINE
  8
0
 10
9.04999
 20
85.5082
 11
9.04999
 21
86.95
  0
LINE
  8
0
 10
9.04999
 20
86.95
 11
10.4948
 21
86.95
  0
LINE
  8
0
 10
10.4948
 20
86.95
 11
10.4672
 21
86.6881
  0
LINE
  8
0
 10
10.4672
 20
86.6881
 11
10.3703
 21
86.3899
  0
LINE
  8
0
 10
10.3703
 20
86.3899
 11
10.2135
 21
86.1183
  0
LINE
  8
0
 10
10.2135
 20
86.1183
 11
10.0037
 21
85.8853
  0
LINE
  8
0
 10
10.0037
 20
85.8853
 11
9.75
 21
85.701
  0
LINE
  8
0
 10
9.75
 20
85.701
 11
9.46352
 21
85.5734
  0
LINE
  8
0
 10
9.46352
 20
85.5734
 11
9.15678
 21
85.5082
  0
LINE
  8
0
 10
9.15678
 20
85.5082
 11
9.04999
 21
85.5082
  0
LINE
  8
0
 10
-0.311859
 20
85.5328
 11
-0.610092
 21
85.6297
  0
LINE
  8
0
 10
-0.610092
 20
85.6297
 11
-0.881668
 21
85.7865
  0
LINE
  8
0
 10
-0.881668
 20
85.7865
 11
-1.11472
 21
85.9963
  0
LINE
  8
0
 10
-1.11472
 20
85.9963
 11
-1.29903
 21
86.25
  0
LINE
  8
0
 10
-1.29903
 20
86.25
 11
-1.42657
 21
86.5365
  0
LINE
  8
0
 10
-1.42657
 20
86.5365
 11
-1.49178
 21
86.8432
  0
LINE
  8
0
 10
-1.49178
 20
86.8432
 11
-1.49178
 21
86.95
  0
LINE
  8
0
 10
-1.49178
 20
86.95
 11
-0.0499878
 21
86.95
  0
LINE
  8
0
 10
-0.0499878
 20
86.95
 11
-0.0499878
 21
85.5052
  0
LINE
  8
0
 10
-0.0499878
 20
85.5052
 11
-0.311859
 21
85.5328
  0
LINE
  8
0
 10
8.84322
 20
85.5082
 11
8.53648
 21
85.5734
  0
LINE
  8
0
 10
8.53648
 20
85.5734
 11
8.25
 21
85.701
  0
LINE
  8
0
 10
8.25
 20
85.701
 11
7.99631
 21
85.8853
  0
LINE
  8
0
 10
7.99631
 20
85.8853
 11
7.78648
 21
86.1183
  0
LINE
  8
0
 10
7.78648
 20
86.1183
 11
7.62968
 21
86.3899
  0
LINE
  8
0
 10
7.62968
 20
86.3899
 11
7.53279
 21
86.6881
  0
LINE
  8
0
 10
7.53279
 20
86.6881
 11
7.50525
 21
86.95
  0
LINE
  8
0
 10
7.50525
 20
86.95
 11
8.95001
 21
86.95
  0
LINE
  8
0
 10
8.95001
 20
86.95
 11
8.95001
 21
85.5082
  0
LINE
  8
0
 10
8.95001
 20
85.5082
 11
8.84322
 21
85.5082
  0
LINE
  8
0
 10
-8.95001
 20
85.5082
 11
-8.95001
 21
86.95
  0
LINE
  8
0
 10
-8.95001
 20
86.95
 11
-7.50525
 21
86.95
  0
LINE
  8
0
 10
-7.50525
 20
86.95
 11
-7.53279
 21
86.6881
  0
LINE
  8
0
 10
-7.53279
 20
86.6881
 11
-7.62968
 21
86.3899
  0
LINE
  8
0
 10
-7.62968
 20
86.3899
 11
-7.78648
 21
86.1183
  0
LINE
  8
0
 10
-7.78648
 20
86.1183
 11
-7.99631
 21
85.8853
  0
LINE
  8
0
 10
-7.99631
 20
85.8853
 11
-8.25
 21
85.701
  0
LINE
  8
0
 10
-8.25
 20
85.701
 11
-8.53648
 21
85.5734
  0
LINE
  8
0
 10
-8.53648
 20
85.5734
 11
-8.84322
 21
85.5082
  0
LINE
  8
0
 10
-8.84322
 20
85.5082
 11
-8.95001
 21
85.5082
  0
LINE
  8
0
 10
-9.15678
 20
85.5082
 11
-9.46352
 21
85.5734
  0
LINE
  8
0
 10
-9.46352
 20
85.5734
 11
-9.75
 21
85.701
  0
LINE
  8
0
 10
-9.75
 20
85.701
 11
-10.0037
 21
85.8853
  0
LINE
  8
0
 10
-10.0037
 20
85.8853
 11
-10.2135
 21
86.1183
  0
LINE
  8
0
 10
-10.2135
 20
86.1183
 11
-10.3703
 21
86.3899
  0
LINE
  8
0
 10
-10.3703
 20
86.3899
 11
-10.4672
 21
86.6881
  0
LINE
  8
0
 10
-10.4672
 20
86.6881
 11
-10.4948
 21
86.95
  0
LINE
  8
0
 10
-10.4948
 20
86.95
 11
-9.04999
 21
86.95
  0
LINE
  8
0
 10
-9.04999
 20
86.95
 11
-9.04999
 21
85.5082
  0
LINE
  8
0
 10
-9.04999
 20
85.5082
 11
-9.15678
 21
85.5082
  0
LINE
  8
0
 10
0.0499878
 20
86.95
 11
1.49178
 21
86.95
  0
LINE
  8
0
 10
1.49178
 20
86.95
 11
1.49178
 21
86.8432
  0
LINE
  8
0
 10
1.49178
 20
86.8432
 11
1.42657
 21
86.5365
  0
LINE
  8
0
 10
1.42657
 20
86.5365
 11
1.29903
 21
86.25
  0
LINE
  8
0
 10
1.29903
 20
86.25
 11
1.11472
 21
85.9963
  0
LINE
  8
0
 10
1.11472
 20
85.9963
 11
0.881668
 21
85.7865
  0
LINE
  8
0
 10
0.881668
 20
85.7865
 11
0.610092
 21
85.6297
  0
LINE
  8
0
 10
0.610092
 20
85.6297
 11
0.311859
 21
85.5328
  0
LINE
  8
0
 10
0.311859
 20
85.5328
 11
0.0499878
 21
85.5052
  0
LINE
  8
0
 10
0.0499878
 20
85.5052
 11
0.0499878
 21
86.95
  0
LINE
  8
0
 10
0.0499878
 20
78.05
 11
0.0499878
 21
79.4948
  0
LINE
  8
0
 10
0.0499878
 20
79.4948
 11
0.311859
 21
79.4672
  0
LINE
  8
0
 10
0.311859
 20
79.4672
 11
0.610092
 21
79.3703
  0
LINE
  8
0
 10
0.610092
 20
79.3703
 11
0.881668
 21
79.2135
  0
LINE
  8
0
 10
0.881668
 20
79.2135
 11
1.11472
 21
79.0037
  0
LINE
  8
0
 10
1.11472
 20
79.0037
 11
1.29903
 21
78.75
  0
LINE
  8
0
 10
1.29903
 20
78.75
 11
1.42657
 21
78.4635
  0
LINE
  8
0
 10
1.42657
 20
78.4635
 11
1.49178
 21
78.1568
  0
LINE
  8
0
 10
1.49178
 20
78.1568
 11
1.49178
 21
78.05
  0
LINE
  8
0
 10
1.49178
 20
78.05
 11
0.0499878
 21
78.05
  0
LINE
  8
0
 10
-1.49178
 20
78.05
 11
-1.49178
 21
78.1568
  0
LINE
  8
0
 10
-1.49178
 20
78.1568
 11
-1.42657
 21
78.4635
  0
LINE
  8
0
 10
-1.42657
 20
78.4635
 11
-1.29903
 21
78.75
  0
LINE
  8
0
 10
-1.29903
 20
78.75
 11
-1.11472
 21
79.0037
  0
LINE
  8
0
 10
-1.11472
 20
79.0037
 11
-0.881668
 21
79.2135
  0
LINE
  8
0
 10
-0.881668
 20
79.2135
 11
-0.610092
 21
79.3703
  0
LINE
  8
0
 10
-0.610092
 20
79.3703
 11
-0.311859
 21
79.4672
  0
LINE
  8
0
 10
-0.311859
 20
79.4672
 11
-0.0499878
 21
79.4948
  0
LINE
  8
0
 10
-0.0499878
 20
79.4948
 11
-0.0499878
 21
78.05
  0
LINE
  8
0
 10
-0.0499878
 20
78.05
 11
-1.49178
 21
78.05
  0
LINE
  8
0
 10
0.0499878
 20
77.95
 11
1.49178
 21
77.95
  0
LINE
  8
0
 10
1.49178
 20
77.95
 11
1.49178
 21
77.8432
  0
LINE
  8
0
 10
1.49178
 20
77.8432
 11
1.42657
 21
77.5365
  0
LINE
  8
0
 10
1.42657
 20
77.5365
 11
1.29903
 21
77.25
  0
LINE
  8
0
 10
1.29903
 20
77.25
 11
1.11472
 21
76.9963
  0
LINE
  8
0
 10
1.11472
 20
76.9963
 11
0.881668
 21
76.7865
  0
LINE
  8
0
 10
0.881668
 20
76.7865
 11
0.610092
 21
76.6297
  0
LINE
  8
0
 10
0.610092
 20
76.6297
 11
0.311859
 21
76.5328
  0
LINE
  8
0
 10
0.311859
 20
76.5328
 11
0.0499878
 21
76.5052
  0
LINE
  8
0
 10
0.0499878
 20
76.5052
 11
0.0499878
 21
77.95
  0
LINE
  8
0
 10
-0.311859
 20
76.5328
 11
-0.610092
 21
76.6297
  0
LINE
  8
0
 10
-0.610092
 20
76.6297
 11
-0.881668
 21
76.7865
  0
LINE
  8
0
 10
-0.881668
 20
76.7865
 11
-1.11472
 21
76.9963
  0
LINE
  8
0
 10
-1.11472
 20
76.9963
 11
-1.29903
 21
77.25
  0
LINE
  8
0
 10
-1.29903
 20
77.25
 11
-1.42657
 21
77.5365
  0
LINE
  8
0
 10
-1.42657
 20
77.5365
 11
-1.49178
 21
77.8432
  0
LINE
  8
0
 10
-1.49178
 20
77.8432
 11
-1.49178
 21
77.95
  0
LINE
  8
0
 10
-1.49178
 20
77.95
 11
-0.0499878
 21
77.95
  0
LINE
  8
0
 10
-0.0499878
 20
77.95
 11
-0.0499878
 21
76.5052
  0
LINE
  8
0
 10
-0.0499878
 20
76.5052
 11
-0.311859
 21
76.5328
  0
LINE
  8
0
 10
0.0499878
 20
64.55
 11
0.0499878
 21
65.9948
  0
LINE
  8
0
 10
0.0499878
 20
65.9948
 11
0.311859
 21
65.9672
  0
LINE
  8
0
 10
0.311859
 20
65.9672
 11
0.610092
 21
65.8703
  0
LINE
  8
0
 10
0.610092
 20
65.8703
 11
0.881668
 21
65.7135
  0
LINE
  8
0
 10
0.881668
 20
65.7135
 11
1.11472
 21
65.5037
  0
LINE
  8
0
 10
1.11472
 20
65.5037
 11
1.29903
 21
65.25
  0
LINE
  8
0
 10
1.29903
 20
65.25
 11
1.42657
 21
64.9635
  0
LINE
  8
0
 10
1.42657
 20
64.9635
 11
1.49178
 21
64.6568
  0
LINE
  8
0
 10
1.49178
 20
64.6568
 11
1.49178
 21
64.55
  0
LINE
  8
0
 10
1.49178
 20
64.55
 11
0.0499878
 21
64.55
  0
LINE
  8
0
 10
-1.49178
 20
64.55
 11
-1.49178
 21
64.6568
  0
LINE
  8
0
 10
-1.49178
 20
64.6568
 11
-1.42657
 21
64.9635
  0
LINE
  8
0
 10
-1.42657
 20
64.9635
 11
-1.29903
 21
65.25
  0
LINE
  8
0
 10
-1.29903
 20
65.25
 11
-1.11472
 21
65.5037
  0
LINE
  8
0
 10
-1.11472
 20
65.5037
 11
-0.881668
 21
65.7135
  0
LINE
  8
0
 10
-0.881668
 20
65.7135
 11
-0.610092
 21
65.8703
  0
LINE
  8
0
 10
-0.610092
 20
65.8703
 11
-0.311859
 21
65.9672
  0
LINE
  8
0
 10
-0.311859
 20
65.9672
 11
-0.0499878
 21
65.9948
  0
LINE
  8
0
 10
-0.0499878
 20
65.9948
 11
-0.0499878
 21
64.55
  0
LINE
  8
0
 10
-0.0499878
 20
64.55
 11
-1.49178
 21
64.55
  0
LINE
  8
0
 10
0.0499878
 20
64.45
 11
1.49178
 21
64.45
  0
LINE
  8
0
 10
1.49178
 20
64.45
 11
1.49178
 21
64.3432
  0
LINE
  8
0
 10
1.49178
 20
64.3432
 11
1.42657
 21
64.0365
  0
LINE
  8
0
 10
1.42657
 20
64.0365
 11
1.29903
 21
63.75
  0
LINE
  8
0
 10
1.29903
 20
63.75
 11
1.11472
 21
63.4963
  0
LINE
  8
0
 10
1.11472
 20
63.4963
 11
0.881668
 21
63.2865
  0
LINE
  8
0
 10
0.881668
 20
63.2865
 11
0.610092
 21
63.1297
  0
LINE
  8
0
 10
0.610092
 20
63.1297
 11
0.311859
 21
63.0328
  0
LINE
  8
0
 10
0.311859
 20
63.0328
 11
0.0499878
 21
63.0052
  0
LINE
  8
0
 10
0.0499878
 20
63.0052
 11
0.0499878
 21
64.45
  0
LINE
  8
0
 10
-0.311859
 20
63.0328
 11
-0.610092
 21
63.1297
  0
LINE
  8
0
 10
-0.610092
 20
63.1297
 11
-0.881668
 21
63.2865
  0
LINE
  8
0
 10
-0.881668
 20
63.2865
 11
-1.11472
 21
63.4963
  0
LINE
  8
0
 10
-1.11472
 20
63.4963
 11
-1.29903
 21
63.75
  0
LINE
  8
0
 10
-1.29903
 20
63.75
 11
-1.42657
 21
64.0365
  0
LINE
  8
0
 10
-1.42657
 20
64.0365
 11
-1.49178
 21
64.3432
  0
LINE
  8
0
 10
-1.49178
 20
64.3432
 11
-1.49178
 21
64.45
  0
LINE
  8
0
 10
-1.49178
 20
64.45
 11
-0.0499878
 21
64.45
  0
LINE
  8
0
 10
-0.0499878
 20
64.45
 11
-0.0499878
 21
63.0052
  0
LINE
  8
0
 10
-0.0499878
 20
63.0052
 11
-0.311859
 21
63.0328
  0
LINE
  8
0
 10
-5.95811
 20
-56.6877
 11
-17.614
 21
-54.2102
  0
LINE
  8
0
 10
-17.614
 20
-54.2102
 11
-28.5
 21
-49.3634
  0
LINE
  8
0
 10
-28.5
 20
-49.3634
 11
-38.1404
 21
-42.3593
  0
LINE
  8
0
 10
-38.1404
 20
-42.3593
 11
-46.114
 21
-33.5038
  0
LINE
  8
0
 10
-46.114
 20
-33.5038
 11
-52.0721
 21
-23.184
  0
LINE
  8
0
 10
-52.0721
 20
-23.184
 11
-55.7544
 21
-11.851
  0
LINE
  8
0
 10
-55.7544
 20
-11.851
 11
-57
 21
0
  0
LINE
  8
0
 10
-57
 20
0
 11
-55.7544
 21
11.851
  0
LINE
  8
0
 10
-55.7544
 20
11.851
 11
-52.0721
 21
23.184
  0
LINE
  8
0
 10
-52.0721
 20
23.184
 11
-46.114
 21
33.5038
  0
LINE
  8
0
 10
-46.114
 20
33.5038
 11
-38.1404
 21
42.3593
  0
LINE
  8
0
 10
-38.1404
 20
42.3593
 11
-28.5
 21
49.3634
  0
LINE
  8
0
 10
-28.5
 20
49.3634
 11
-17.614
 21
54.2102
  0
LINE
  8
0
 10
-17.614
 20
54.2102
 11
-5.95811
 21
56.6877
  0
LINE
  8
0
 10
-5.95811
 20
56.6877
 11
5.95811
 21
56.6877
  0
LINE
  8
0
 10
5.95811
 20
56.6877
 11
17.614
 21
54.2102
  0
LINE
  8
0
 10
17.614
 20
54.2102
 11
28.5
 21
49.3634
  0
LINE
  8
0
 10
28.5
 20
49.3634
 11
38.1404
 21
42.3593
  0
LINE
  8
0
 10
38.1404
 20
42.3593
 11
46.114
 21
33.5038
  0
LINE
  8
0
 10
46.114
 20
33.5038
 11
52.0721
 21
23.184
  0
LINE
  8
0
 10
52.0721
 20
23.184
 11
55.7544
 21
11.851
  0
LINE
  8
0
 10
55.7544
 20
11.851
 11
57
 21
0
  0
LINE
  8
0
 10
57
 20
0
 11
55.7544
 21
-11.851
  0
LINE
  8
0
 10
55.7544
 20
-11.851
 11
52.0721
 21
-23.184
  0
LINE
  8
0
 10
52.0721
 20
-23.184
 11
46.114
 21
-33.5038
  0
LINE
  8
0
 10
46.114
 20
-33.5038
 11
38.1404
 21
-42.3593
  0
LINE
  8
0
 10
38.1404
 20
-42.3593
 11
28.5
 21
-49.3634
  0
LINE
  8
0
 10
28.5
 20
-49.3634
 11
17.614
 21
-54.2102
  0
LINE
  8
0
 10
17.614
 20
-54.2102
 11
5.95811
 21
-56.6877
  0
LINE
  8
0
 10
5.95811
 20
-56.6877
 11
-5.95811
 21
-56.6877
  0
LINE
  8
0
 10
87.05
 20
9.04999
 11
87.05
 21
10.4948
  0
LINE
  8
0
 10
87.05
 20
10.4948
 11
87.3119
 21
10.4672
  0
LINE
  8
0
 10
87.3119
 20
10.4672
 11
87.6101
 21
10.3703
  0
LINE
  8
0
 10
87.6101
 20
10.3703
 11
87.8817
 21
10.2135
  0
LINE
  8
0
 10
87.8817
 20
10.2135
 11
88.1147
 21
10.0037
  0
LINE
  8
0
 10
88.1147
 20
10.0037
 11
88.299
 21
9.75
  0
LINE
  8
0
 10
88.299
 20
9.75
 11
88.4266
 21
9.46352
  0
LINE
  8
0
 10
88.4266
 20
9.46352
 11
88.4918
 21
9.15678
  0
LINE
  8
0
 10
88.4918
 20
9.15678
 11
88.4918
 21
9.04999
  0
LINE
  8
0
 10
88.4918
 20
9.04999
 11
87.05
 21
9.04999
  0
LINE
  8
0
 10
85.5082
 20
9.04999
 11
85.5082
 21
9.15678
  0
LINE
  8
0
 10
85.5082
 20
9.15678
 11
85.5734
 21
9.46352
  0
LINE
  8
0
 10
85.5734
 20
9.46352
 11
85.701
 21
9.75
  0
LINE
  8
0
 10
85.701
 20
9.75
 11
85.8853
 21
10.0037
  0
LINE
  8
0
 10
85.8853
 20
10.0037
 11
86.1183
 21
10.2135
  0
LINE
  8
0
 10
86.1183
 20
10.2135
 11
86.3899
 21
10.3703
  0
LINE
  8
0
 10
86.3899
 20
10.3703
 11
86.6881
 21
10.4672
  0
LINE
  8
0
 10
86.6881
 20
10.4672
 11
86.95
 21
10.4948
  0
LINE
  8
0
 10
86.95
 20
10.4948
 11
86.95
 21
9.04999
  0
LINE
  8
0
 10
86.95
 20
9.04999
 11
85.5082
 21
9.04999
  0
LINE
  8
0
 10
-86.95
 20
9.04999
 11
-86.95
 21
10.4948
  0
LINE
  8
0
 10
-86.95
 20
10.4948
 11
-86.6881
 21
10.4672
  0
LINE
  8
0
 10
-86.6881
 20
10.4672
 11
-86.3899
 21
10.3703
  0
LINE
  8
0
 10
-86.3899
 20
10.3703
 11
-86.1183
 21
10.2135
  0
LINE
  8
0
 10
-86.1183
 20
10.2135
 11
-85.8853
 21
10.0037
  0
LINE
  8
0
 10
-85.8853
 20
10.0037
 11
-85.701
 21
9.75
  0
LINE
  8
0
 10
-85.701
 20
9.75
 11
-85.5734
 21
9.46352
  0
LINE
  8
0
 10
-85.5734
 20
9.46352
 11
-85.5082
 21
9.15678
  0
LINE
  8
0
 10
-85.5082
 20
9.15678
 11
-85.5082
 21
9.04999
  0
LINE
  8
0
 10
-85.5082
 20
9.04999
 11
-86.95
 21
9.04999
  0
LINE
  8
0
 10
-88.4918
 20
9.04999
 11
-88.4918
 21
9.15678
  0
LINE
  8
0
 10
-88.4918
 20
9.15678
 11
-88.4266
 21
9.46352
  0
LINE
  8
0
 10
-88.4266
 20
9.46352
 11
-88.299
 21
9.75
  0
LINE
  8
0
 10
-88.299
 20
9.75
 11
-88.1147
 21
10.0037
  0
LINE
  8
0
 10
-88.1147
 20
10.0037
 11
-87.8817
 21
10.2135
  0
LINE
  8
0
 10
-87.8817
 20
10.2135
 11
-87.6101
 21
10.3703
  0
LINE
  8
0
 10
-87.6101
 20
10.3703
 11
-87.3119
 21
10.4672
  0
LINE
  8
0
 10
-87.3119
 20
10.4672
 11
-87.05
 21
10.4948
  0
LINE
  8
0
 10
-87.05
 20
10.4948
 11
-87.05
 21
9.04999
  0
LINE
  8
0
 10
-87.05
 20
9.04999
 11
-88.4918
 21
9.04999
  0
LINE
  8
0
 10
86.6881
 20
7.53279
 11
86.3899
 21
7.62968
  0
LINE
  8
0
 10
86.3899
 20
7.62968
 11
86.1183
 21
7.78648
  0
LINE
  8
0
 10
86.1183
 20
7.78648
 11
85.8853
 21
7.99631
  0
LINE
  8
0
 10
85.8853
 20
7.99631
 11
85.701
 21
8.25
  0
LINE
  8
0
 10
85.701
 20
8.25
 11
85.5734
 21
8.53648
  0
LINE
  8
0
 10
85.5734
 20
8.53648
 11
85.5082
 21
8.84322
  0
LINE
  8
0
 10
85.5082
 20
8.84322
 11
85.5082
 21
8.95001
  0
LINE
  8
0
 10
85.5082
 20
8.95001
 11
86.95
 21
8.95001
  0
LINE
  8
0
 10
86.95
 20
8.95001
 11
86.95
 21
7.50525
  0
LINE
  8
0
 10
86.95
 20
7.50525
 11
86.6881
 21
7.53279
  0
LINE
  8
0
 10
87.05
 20
8.95001
 11
88.4918
 21
8.95001
  0
LINE
  8
0
 10
88.4918
 20
8.95001
 11
88.4918
 21
8.84322
  0
LINE
  8
0
 10
88.4918
 20
8.84322
 11
88.4266
 21
8.53648
  0
LINE
  8
0
 10
88.4266
 20
8.53648
 11
88.299
 21
8.25
  0
LINE
  8
0
 10
88.299
 20
8.25
 11
88.1147
 21
7.99631
  0
LINE
  8
0
 10
88.1147
 20
7.99631
 11
87.8817
 21
7.78648
  0
LINE
  8
0
 10
87.8817
 20
7.78648
 11
87.6101
 21
7.62968
  0
LINE
  8
0
 10
87.6101
 20
7.62968
 11
87.3119
 21
7.53279
  0
LINE
  8
0
 10
87.3119
 20
7.53279
 11
87.05
 21
7.50525
  0
LINE
  8
0
 10
87.05
 20
7.50525
 11
87.05
 21
8.95001
  0
LINE
  8
0
 10
-86.95
 20
8.95001
 11
-85.5082
 21
8.95001
  0
LINE
  8
0
 10
-85.5082
 20
8.95001
 11
-85.5082
 21
8.84322
  0
LINE
  8
0
 10
-85.5082
 20
8.84322
 11
-85.5734
 21
8.53648
  0
LINE
  8
0
 10
-85.5734
 20
8.53648
 11
-85.701
 21
8.25
  0
LINE
  8
0
 10
-85.701
 20
8.25
 11
-85.8853
 21
7.99631
  0
LINE
  8
0
 10
-85.8853
 20
7.99631
 11
-86.1183
 21
7.78648
  0
LINE
  8
0
 10
-86.1183
 20
7.78648
 11
-86.3899
 21
7.62968
  0
LINE
  8
0
 10
-86.3899
 20
7.62968
 11
-86.6881
 21
7.53279
  0
LINE
  8
0
 10
-86.6881
 20
7.53279
 11
-86.95
 21
7.50525
  0
LINE
  8
0
 10
-86.95
 20
7.50525
 11
-86.95
 21
8.95001
  0
LINE
  8
0
 10
-87.3119
 20
7.53279
 11
-87.6101
 21
7.62968
  0
LINE
  8
0
 10
-87.6101
 20
7.62968
 11
-87.8817
 21
7.78648
  0
LINE
  8
0
 10
-87.8817
 20
7.78648
 11
-88.1147
 21
7.99631
  0
LINE
  8
0
 10
-88.1147
 20
7.99631
 11
-88.299
 21
8.25
  0
LINE
  8
0
 10
-88.299
 20
8.25
 11
-88.4266
 21
8.53648
  0
LINE
  8
0
 10
-88.4266
 20
8.53648
 11
-88.4918
 21
8.84322
  0
LINE
  8
0
 10
-88.4918
 20
8.84322
 11
-88.4918
 21
8.95001
  0
LINE
  8
0
 10
-88.4918
 20
8.95001
 11
-87.05
 21
8.95001
  0
LINE
  8
0
 10
-87.05
 20
8.95001
 11
-87.05
 21
7.50525
  0
LINE
  8
0
 10
-87.05
 20
7.50525
 11
-87.3119
 21
7.53279
  0
LINE
  8
0
 10
-79.4948
 20
0.0499878
 11
-79.4672
 21
0.311859
  0
LINE
  8
0
 10
-79.4672
 20
0.311859
 11
-79.3703
 21
0.610092
  0
LINE
  8
0
 10
-79.3703
 20
0.610092
 11
-79.2135
 21
0.881668
  0
LINE
  8
0
 10
-79.2135
 20
0.881668
 11
-79.0037
 21
1.11472
  0
LINE
  8
0
 10
-79.0037
 20
1.11472
 11
-78.75
 21
1.29903
  0
LINE
  8
0
 10
-78.75
 20
1.29903
 11
-78.4635
 21
1.42657
  0
LINE
  8
0
 10
-78.4635
 20
1.42657
 11
-78.1568
 21
1.49178
  0
LINE
  8
0
 10
-78.1568
 20
1.49178
 11
-78.05
 21
1.49178
  0
LINE
  8
0
 10
-78.05
 20
1.49178
 11
-78.05
 21
0.0499878
  0
LINE
  8
0
 10
-78.05
 20
0.0499878
 11
-79.4948
 21
0.0499878
  0
LINE
  8
0
 10
-65.9948
 20
0.0499878
 11
-65.9672
 21
0.311859
  0
LINE
  8
0
 10
-65.9672
 20
0.311859
 11
-65.8703
 21
0.610092
  0
LINE
  8
0
 10
-65.8703
 20
0.610092
 11
-65.7135
 21
0.881668
  0
LINE
  8
0
 10
-65.7135
 20
0.881668
 11
-65.5037
 21
1.11472
  0
LINE
  8
0
 10
-65.5037
 20
1.11472
 11
-65.25
 21
1.29903
  0
LINE
  8
0
 10
-65.25
 20
1.29903
 11
-64.9635
 21
1.42657
  0
LINE
  8
0
 10
-64.9635
 20
1.42657
 11
-64.6568
 21
1.49178
  0
LINE
  8
0
 10
-64.6568
 20
1.49178
 11
-64.55
 21
1.49178
  0
LINE
  8
0
 10
-64.55
 20
1.49178
 11
-64.55
 21
0.0499878
  0
LINE
  8
0
 10
-64.55
 20
0.0499878
 11
-65.9948
 21
0.0499878
  0
LINE
  8
0
 10
-77.95
 20
0.0499878
 11
-77.95
 21
1.49178
  0
LINE
  8
0
 10
-77.95
 20
1.49178
 11
-77.8432
 21
1.49178
  0
LINE
  8
0
 10
-77.8432
 20
1.49178
 11
-77.5365
 21
1.42657
  0
LINE
  8
0
 10
-77.5365
 20
1.42657
 11
-77.25
 21
1.29903
  0
LINE
  8
0
 10
-77.25
 20
1.29903
 11
-76.9963
 21
1.11472
  0
LINE
  8
0
 10
-76.9963
 20
1.11472
 11
-76.7865
 21
0.881668
  0
LINE
  8
0
 10
-76.7865
 20
0.881668
 11
-76.6297
 21
0.610092
  0
LINE
  8
0
 10
-76.6297
 20
0.610092
 11
-76.5328
 21
0.311859
  0
LINE
  8
0
 10
-76.5328
 20
0.311859
 11
-76.5052
 21
0.0499878
  0
LINE
  8
0
 10
-76.5052
 20
0.0499878
 11
-77.95
 21
0.0499878
  0
LINE
  8
0
 10
-64.45
 20
0.0499878
 11
-64.45
 21
1.49178
  0
LINE
  8
0
 10
-64.45
 20
1.49178
 11
-64.3432
 21
1.49178
  0
LINE
  8
0
 10
-64.3432
 20
1.49178
 11
-64.0365
 21
1.42657
  0
LINE
  8
0
 10
-64.0365
 20
1.42657
 11
-63.75
 21
1.29903
  0
LINE
  8
0
 10
-63.75
 20
1.29903
 11
-63.4963
 21
1.11472
  0
LINE
  8
0
 10
-63.4963
 20
1.11472
 11
-63.2865
 21
0.881668
  0
LINE
  8
0
 10
-63.2865
 20
0.881668
 11
-63.1297
 21
0.610092
  0
LINE
  8
0
 10
-63.1297
 20
0.610092
 11
-63.0328
 21
0.311859
  0
LINE
  8
0
 10
-63.0328
 20
0.311859
 11
-63.0052
 21
0.0499878
  0
LINE
  8
0
 10
-63.0052
 20
0.0499878
 11
-64.45
 21
0.0499878
  0
LINE
  8
0
 10
63.0052
 20
0.0499878
 11
63.0328
 21
0.311859
  0
LINE
  8
0
 10
63.0328
 20
0.311859
 11
63.1297
 21
0.610092
  0
LINE
  8
0
 10
63.1297
 20
0.610092
 11
63.2865
 21
0.881668
  0
LINE
  8
0
 10
63.2865
 20
0.881668
 11
63.4963
 21
1.11472
  0
LINE
  8
0
 10
63.4963
 20
1.11472
 11
63.75
 21
1.29903
  0
LINE
  8
0
 10
63.75
 20
1.29903
 11
64.0365
 21
1.42657
  0
LINE
  8
0
 10
64.0365
 20
1.42657
 11
64.3432
 21
1.49178
  0
LINE
  8
0
 10
64.3432
 20
1.49178
 11
64.45
 21
1.49178
  0
LINE
  8
0
 10
64.45
 20
1.49178
 11
64.45
 21
0.0499878
  0
LINE
  8
0
 10
64.45
 20
0.0499878
 11
63.0052
 21
0.0499878
  0
LINE
  8
0
 10
64.55
 20
0.0499878
 11
64.55
 21
1.49178
  0
LINE
  8
0
 10
64.55
 20
1.49178
 11
64.6568
 21
1.49178
  0
LINE
  8
0
 10
64.6568
 20
1.49178
 11
64.9635
 21
1.42657
  0
LINE
  8
0
 10
64.9635
 20
1.42657
 11
65.25
 21
1.29903
  0
LINE
  8
0
 10
65.25
 20
1.29903
 11
65.5037
 21
1.11472
  0
LINE
  8
0
 10
65.5037
 20
1.11472
 11
65.7135
 21
0.881668
  0
LINE
  8
0
 10
65.7135
 20
0.881668
 11
65.8703
 21
0.610092
  0
LINE
  8
0
 10
65.8703
 20
0.610092
 11
65.9672
 21
0.311859
  0
LINE
  8
0
 10
65.9672
 20
0.311859
 11
65.9948
 21
0.0499878
  0
LINE
  8
0
 10
65.9948
 20
0.0499878
 11
64.55
 21
0.0499878
  0
LINE
  8
0
 10
78.05
 20
0.0499878
 11
78.05
 21
1.49178
  0
LINE
  8
0
 10
78.05
 20
1.49178
 11
78.1568
 21
1.49178
  0
LINE
  8
0
 10
78.1568
 20
1.49178
 11
78.4635
 21
1.42657
  0
LINE
  8
0
 10
78.4635
 20
1.42657
 11
78.75
 21
1.29903
  0
LINE
  8
0
 10
78.75
 20
1.29903
 11
79.0037
 21
1.11472
  0
LINE
  8
0
 10
79.0037
 20
1.11472
 11
79.2135
 21
0.881668
  0
LINE
  8
0
 10
79.2135
 20
0.881668
 11
79.3703
 21
0.610092
  0
LINE
  8
0
 10
79.3703
 20
0.610092
 11
79.4672
 21
0.311859
  0
LINE
  8
0
 10
79.4672
 20
0.311859
 11
79.4948
 21
0.0499878
  0
LINE
  8
0
 10
79.4948
 20
0.0499878
 11
78.05
 21
0.0499878
  0
LINE
  8
0
 10
76.5052
 20
0.0499878
 11
76.5328
 21
0.311859
  0
LINE
  8
0
 10
76.5328
 20
0.311859
 11
76.6297
 21
0.610092
  0
LINE
  8
0
 10
76.6297
 20
0.610092
 11
76.7865
 21
0.881668
  0
LINE
  8
0
 10
76.7865
 20
0.881668
 11
76.9963
 21
1.11472
  0
LINE
  8
0
 10
76.9963
 20
1.11472
 11
77.25
 21
1.29903
  0
LINE
  8
0
 10
77.25
 20
1.29903
 11
77.5365
 21
1.42657
  0
LINE
  8
0
 10
77.5365
 20
1.42657
 11
77.8432
 21
1.49178
  0
LINE
  8
0
 10
77.8432
 20
1.49178
 11
77.95
 21
1.49178
  0
LINE
  8
0
 10
77.95
 20
1.49178
 11
77.95
 21
0.0499878
  0
LINE
  8
0
 10
77.95
 20
0.0499878
 11
76.5052
 21
0.0499878
  0
LINE
  8
0
 10
96.05
 20
0.0499878
 11
96.05
 21
1.49178
  0
LINE
  8
0
 10
96.05
 20
1.49178
 11
96.1568
 21
1.49178
  0
LINE
  8
0
 10
96.1568
 20
1.49178
 11
96.4635
 21
1.42657
  0
LINE
  8
0
 10
96.4635
 20
1.42657
 11
96.75
 21
1.29903
  0
LINE
  8
0
 10
96.75
 20
1.29903
 11
97.0037
 21
1.11472
  0
LINE
  8
0
 10
97.0037
 20
1.11472
 11
97.2135
 21
0.881668
  0
LINE
  8
0
 10
97.2135
 20
0.881668
 11
97.3703
 21
0.610092
  0
LINE
  8
0
 10
97.3703
 20
0.610092
 11
97.4672
 21
0.311859
  0
LINE
  8
0
 10
97.4672
 20
0.311859
 11
97.4948
 21
0.0499878
  0
LINE
  8
0
 10
97.4948
 20
0.0499878
 11
96.05
 21
0.0499878
  0
LINE
  8
0
 10
85.5052
 20
0.0499878
 11
85.5328
 21
0.311859
  0
LINE
  8
0
 10
85.5328
 20
0.311859
 11
85.6297
 21
0.610092
  0
LINE
  8
0
 10
85.6297
 20
0.610092
 11
85.7865
 21
0.881668
  0
LINE
  8
0
 10
85.7865
 20
0.881668
 11
85.9963
 21
1.11472
  0
LINE
  8
0
 10
85.9963
 20
1.11472
 11
86.25
 21
1.29903
  0
LINE
  8
0
 10
86.25
 20
1.29903
 11
86.5365
 21
1.42657
  0
LINE
  8
0
 10
86.5365
 20
1.42657
 11
86.8432
 21
1.49178
  0
LINE
  8
0
 10
86.8432
 20
1.49178
 11
86.95
 21
1.49178
  0
LINE
  8
0
 10
86.95
 20
1.49178
 11
86.95
 21
0.0499878
  0
LINE
  8
0
 10
86.95
 20
0.0499878
 11
85.5052
 21
0.0499878
  0
LINE
  8
0
 10
87.05
 20
0.0499878
 11
87.05
 21
1.49178
  0
LINE
  8
0
 10
87.05
 20
1.49178
 11
87.1568
 21
1.49178
  0
LINE
  8
0
 10
87.1568
 20
1.49178
 11
87.4635
 21
1.42657
  0
LINE
  8
0
 10
87.4635
 20
1.42657
 11
87.75
 21
1.29903
  0
LINE
  8
0
 10
87.75
 20
1.29903
 11
88.0037
 21
1.11472
  0
LINE
  8
0
 10
88.0037
 20
1.11472
 11
88.2135
 21
0.881668
  0
LINE
  8
0
 10
88.2135
 20
0.881668
 11
88.3703
 21
0.610092
  0
LINE
  8
0
 10
88.3703
 20
0.610092
 11
88.4672
 21
0.311859
  0
LINE
  8
0
 10
88.4672
 20
0.311859
 11
88.4948
 21
0.0499878
  0
LINE
  8
0
 10
88.4948
 20
0.0499878
 11
87.05
 21
0.0499878
  0
LINE
  8
0
 10
-88.4948
 20
0.0499878
 11
-88.4672
 21
0.311859
  0
LINE
  8
0
 10
-88.4672
 20
0.311859
 11
-88.3703
 21
0.610092
  0
LINE
  8
0
 10
-88.3703
 20
0.610092
 11
-88.2135
 21
0.881668
  0
LINE
  8
0
 10
-88.2135
 20
0.881668
 11
-88.0037
 21
1.11472
  0
LINE
  8
0
 10
-88.0037
 20
1.11472
 11
-87.75
 21
1.29903
  0
LINE
  8
0
 10
-87.75
 20
1.29903
 11
-87.4635
 21
1.42657
  0
LINE
  8
0
 10
-87.4635
 20
1.42657
 11
-87.1568
 21
1.49178
  0
LINE
  8
0
 10
-87.1568
 20
1.49178
 11
-87.05
 21
1.49178
  0
LINE
  8
0
 10
-87.05
 20
1.49178
 11
-87.05
 21
0.0499878
  0
LINE
  8
0
 10
-87.05
 20
0.0499878
 11
-88.4948
 21
0.0499878
  0
LINE
  8
0
 10
-86.95
 20
0.0499878
 11
-86.95
 21
1.49178
  0
LINE
  8
0
 10
-86.95
 20
1.49178
 11
-86.8432
 21
1.49178
  0
LINE
  8
0
 10
-86.8432
 20
1.49178
 11
-86.5365
 21
1.42657
  0
LINE
  8
0
 10
-86.5365
 20
1.42657
 11
-86.25
 21
1.29903
  0
LINE
  8
0
 10
-86.25
 20
1.29903
 11
-85.9963
 21
1.11472
  0
LINE
  8
0
 10
-85.9963
 20
1.11472
 11
-85.7865
 21
0.881668
  0
LINE
  8
0
 10
-85.7865
 20
0.881668
 11
-85.6297
 21
0.610092
  0
LINE
  8
0
 10
-85.6297
 20
0.610092
 11
-85.5328
 21
0.311859
  0
LINE
  8
0
 10
-85.5328
 20
0.311859
 11
-85.5052
 21
0.0499878
  0
LINE
  8
0
 10
-85.5052
 20
0.0499878
 11
-86.95
 21
0.0499878
  0
LINE
  8
0
 10
-97.4948
 20
0.0499878
 11
-97.4672
 21
0.311859
  0
LINE
  8
0
 10
-97.4672
 20
0.311859
 11
-97.3703
 21
0.610092
  0
LINE
  8
0
 10
-97.3703
 20
0.610092
 11
-97.2135
 21
0.881668
  0
LINE
  8
0
 10
-97.2135
 20
0.881668
 11
-97.0037
 21
1.11472
  0
LINE
  8
0
 10
-97.0037
 20
1.11472
 11
-96.75
 21
1.29903
  0
LINE
  8
0
 10
-96.75
 20
1.29903
 11
-96.4635
 21
1.42657
  0
LINE
  8
0
 10
-96.4635
 20
1.42657
 11
-96.1568
 21
1.49178
  0
LINE
  8
0
 10
-96.1568
 20
1.49178
 11
-96.05
 21
1.49178
  0
LINE
  8
0
 10
-96.05
 20
1.49178
 11
-96.05
 21
0.0499878
  0
LINE
  8
0
 10
-96.05
 20
0.0499878
 11
-97.4948
 21
0.0499878
  0
LINE
  8
0
 10
94.5052
 20
0.0499878
 11
94.5328
 21
0.311859
  0
LINE
  8
0
 10
94.5328
 20
0.311859
 11
94.6297
 21
0.610092
  0
LINE
  8
0
 10
94.6297
 20
0.610092
 11
94.7865
 21
0.881668
  0
LINE
  8
0
 10
94.7865
 20
0.881668
 11
94.9963
 21
1.11472
  0
LINE
  8
0
 10
94.9963
 20
1.11472
 11
95.25
 21
1.29903
  0
LINE
  8
0
 10
95.25
 20
1.29903
 11
95.5365
 21
1.42657
  0
LINE
  8
0
 10
95.5365
 20
1.42657
 11
95.8432
 21
1.49178
  0
LINE
  8
0
 10
95.8432
 20
1.49178
 11
95.95
 21
1.49178
  0
LINE
  8
0
 10
95.95
 20
1.49178
 11
95.95
 21
0.0499878
  0
LINE
  8
0
 10
95.95
 20
0.0499878
 11
94.5052
 21
0.0499878
  0
LINE
  8
0
 10
-95.95
 20
0.0499878
 11
-95.95
 21
1.49178
  0
LINE
  8
0
 10
-95.95
 20
1.49178
 11
-95.8432
 21
1.49178
  0
LINE
  8
0
 10
-95.8432
 20
1.49178
 11
-95.5365
 21
1.42657
  0
LINE
  8
0
 10
-95.5365
 20
1.42657
 11
-95.25
 21
1.29903
  0
LINE
  8
0
 10
-95.25
 20
1.29903
 11
-94.9963
 21
1.11472
  0
LINE
  8
0
 10
-94.9963
 20
1.11472
 11
-94.7865
 21
0.881668
  0
LINE
  8
0
 10
-94.7865
 20
0.881668
 11
-94.6297
 21
0.610092
  0
LINE
  8
0
 10
-94.6297
 20
0.610092
 11
-94.5328
 21
0.311859
  0
LINE
  8
0
 10
-94.5328
 20
0.311859
 11
-94.5052
 21
0.0499878
  0
LINE
  8
0
 10
-94.5052
 20
0.0499878
 11
-95.95
 21
0.0499878
  0
LINE
  8
0
 10
-77.95
 20
-1.49178
 11
-77.95
 21
-0.0499878
  0
LINE
  8
0
 10
-77.95
 20
-0.0499878
 11
-76.5052
 21
-0.0499878
  0
LINE
  8
0
 10
-76.5052
 20
-0.0499878
 11
-76.5328
 21
-0.311859
  0
LINE
  8
0
 10
-76.5328
 20
-0.311859
 11
-76.6297
 21
-0.610092
  0
LINE
  8
0
 10
-76.6297
 20
-0.610092
 11
-76.7865
 21
-0.881668
  0
LINE
  8
0
 10
-76.7865
 20
-0.881668
 11
-76.9963
 21
-1.11472
  0
LINE
  8
0
 10
-76.9963
 20
-1.11472
 11
-77.25
 21
-1.29903
  0
LINE
  8
0
 10
-77.25
 20
-1.29903
 11
-77.5365
 21
-1.42657
  0
LINE
  8
0
 10
-77.5365
 20
-1.42657
 11
-77.8432
 21
-1.49178
  0
LINE
  8
0
 10
-77.8432
 20
-1.49178
 11
-77.95
 21
-1.49178
  0
LINE
  8
0
 10
95.8432
 20
-1.49178
 11
95.5365
 21
-1.42657
  0
LINE
  8
0
 10
95.5365
 20
-1.42657
 11
95.25
 21
-1.29903
  0
LINE
  8
0
 10
95.25
 20
-1.29903
 11
94.9963
 21
-1.11472
  0
LINE
  8
0
 10
94.9963
 20
-1.11472
 11
94.7865
 21
-0.881668
  0
LINE
  8
0
 10
94.7865
 20
-0.881668
 11
94.6297
 21
-0.610092
  0
LINE
  8
0
 10
94.6297
 20
-0.610092
 11
94.5328
 21
-0.311859
  0
LINE
  8
0
 10
94.5328
 20
-0.311859
 11
94.5052
 21
-0.0499878
  0
LINE
  8
0
 10
94.5052
 20
-0.0499878
 11
95.95
 21
-0.0499878
  0
LINE
  8
0
 10
95.95
 20
-0.0499878
 11
95.95
 21
-1.49178
  0
LINE
  8
0
 10
95.95
 20
-1.49178
 11
95.8432
 21
-1.49178
  0
LINE
  8
0
 10
78.05
 20
-1.49178
 11
78.05
 21
-0.0499878
  0
LINE
  8
0
 10
78.05
 20
-0.0499878
 11
79.4948
 21
-0.0499878
  0
LINE
  8
0
 10
79.4948
 20
-0.0499878
 11
79.4672
 21
-0.311859
  0
LINE
  8
0
 10
79.4672
 20
-0.311859
 11
79.3703
 21
-0.610092
  0
LINE
  8
0
 10
79.3703
 20
-0.610092
 11
79.2135
 21
-0.881668
  0
LINE
  8
0
 10
79.2135
 20
-0.881668
 11
79.0037
 21
-1.11472
  0
LINE
  8
0
 10
79.0037
 20
-1.11472
 11
78.75
 21
-1.29903
  0
LINE
  8
0
 10
78.75
 20
-1.29903
 11
78.4635
 21
-1.42657
  0
LINE
  8
0
 10
78.4635
 20
-1.42657
 11
78.1568
 21
-1.49178
  0
LINE
  8
0
 10
78.1568
 20
-1.49178
 11
78.05
 21
-1.49178
  0
LINE
  8
0
 10
77.8432
 20
-1.49178
 11
77.5365
 21
-1.42657
  0
LINE
  8
0
 10
77.5365
 20
-1.42657
 11
77.25
 21
-1.29903
  0
LINE
  8
0
 10
77.25
 20
-1.29903
 11
76.9963
 21
-1.11472
  0
LINE
  8
0
 10
76.9963
 20
-1.11472
 11
76.7865
 21
-0.881668
  0
LINE
  8
0
 10
76.7865
 20
-0.881668
 11
76.6297
 21
-0.610092
  0
LINE
  8
0
 10
76.6297
 20
-0.610092
 11
76.5328
 21
-0.311859
  0
LINE
  8
0
 10
76.5328
 20
-0.311859
 11
76.5052
 21
-0.0499878
  0
LINE
  8
0
 10
76.5052
 20
-0.0499878
 11
77.95
 21
-0.0499878
  0
LINE
  8
0
 10
77.95
 20
-0.0499878
 11
77.95
 21
-1.49178
  0
LINE
  8
0
 10
77.95
 20
-1.49178
 11
77.8432
 21
-1.49178
  0
LINE
  8
0
 10
64.55
 20
-1.49178
 11
64.55
 21
-0.0499878
  0
LINE
  8
0
 10
64.55
 20
-0.0499878
 11
65.9948
 21
-0.0499878
  0
LINE
  8
0
 10
65.9948
 20
-0.0499878
 11
65.9672
 21
-0.311859
  0
LINE
  8
0
 10
65.9672
 20
-0.311859
 11
65.8703
 21
-0.610092
  0
LINE
  8
0
 10
65.8703
 20
-0.610092
 11
65.7135
 21
-0.881668
  0
LINE
  8
0
 10
65.7135
 20
-0.881668
 11
65.5037
 21
-1.11472
  0
LINE
  8
0
 10
65.5037
 20
-1.11472
 11
65.25
 21
-1.29903
  0
LINE
  8
0
 10
65.25
 20
-1.29903
 11
64.9635
 21
-1.42657
  0
LINE
  8
0
 10
64.9635
 20
-1.42657
 11
64.6568
 21
-1.49178
  0
LINE
  8
0
 10
64.6568
 20
-1.49178
 11
64.55
 21
-1.49178
  0
LINE
  8
0
 10
64.3432
 20
-1.49178
 11
64.0365
 21
-1.42657
  0
LINE
  8
0
 10
64.0365
 20
-1.42657
 11
63.75
 21
-1.29903
  0
LINE
  8
0
 10
63.75
 20
-1.29903
 11
63.4963
 21
-1.11472
  0
LINE
  8
0
 10
63.4963
 20
-1.11472
 11
63.2865
 21
-0.881668
  0
LINE
  8
0
 10
63.2865
 20
-0.881668
 11
63.1297
 21
-0.610092
  0
LINE
  8
0
 10
63.1297
 20
-0.610092
 11
63.0328
 21
-0.311859
  0
LINE
  8
0
 10
63.0328
 20
-0.311859
 11
63.0052
 21
-0.0499878
  0
LINE
  8
0
 10
63.0052
 20
-0.0499878
 11
64.45
 21
-0.0499878
  0
LINE
  8
0
 10
64.45
 20
-0.0499878
 11
64.45
 21
-1.49178
  0
LINE
  8
0
 10
64.45
 20
-1.49178
 11
64.3432
 21
-1.49178
  0
LINE
  8
0
 10
86.8432
 20
-1.49178
 11
86.5365
 21
-1.42657
  0
LINE
  8
0
 10
86.5365
 20
-1.42657
 11
86.25
 21
-1.29903
  0
LINE
  8
0
 10
86.25
 20
-1.29903
 11
85.9963
 21
-1.11472
  0
LINE
  8
0
 10
85.9963
 20
-1.11472
 11
85.7865
 21
-0.881668
  0
LINE
  8
0
 10
85.7865
 20
-0.881668
 11
85.6297
 21
-0.610092
  0
LINE
  8
0
 10
85.6297
 20
-0.610092
 11
85.5328
 21
-0.311859
  0
LINE
  8
0
 10
85.5328
 20
-0.311859
 11
85.5052
 21
-0.0499878
  0
LINE
  8
0
 10
85.5052
 20
-0.0499878
 11
86.95
 21
-0.0499878
  0
LINE
  8
0
 10
86.95
 20
-0.0499878
 11
86.95
 21
-1.49178
  0
LINE
  8
0
 10
86.95
 20
-1.49178
 11
86.8432
 21
-1.49178
  0
LINE
  8
0
 10
87.05
 20
-1.49178
 11
87.05
 21
-0.0499878
  0
LINE
  8
0
 10
87.05
 20
-0.0499878
 11
88.4948
 21
-0.0499878
  0
LINE
  8
0
 10
88.4948
 20
-0.0499878
 11
88.4672
 21
-0.311859
  0
LINE
  8
0
 10
88.4672
 20
-0.311859
 11
88.3703
 21
-0.610092
  0
LINE
  8
0
 10
88.3703
 20
-0.610092
 11
88.2135
 21
-0.881668
  0
LINE
  8
0
 10
88.2135
 20
-0.881668
 11
88.0037
 21
-1.11472
  0
LINE
  8
0
 10
88.0037
 20
-1.11472
 11
87.75
 21
-1.29903
  0
LINE
  8
0
 10
87.75
 20
-1.29903
 11
87.4635
 21
-1.42657
  0
LINE
  8
0
 10
87.4635
 20
-1.42657
 11
87.1568
 21
-1.49178
  0
LINE
  8
0
 10
87.1568
 20
-1.49178
 11
87.05
 21
-1.49178
  0
LINE
  8
0
 10
-87.1568
 20
-1.49178
 11
-87.4635
 21
-1.42657
  0
LINE
  8
0
 10
-87.4635
 20
-1.42657
 11
-87.75
 21
-1.29903
  0
LINE
  8
0
 10
-87.75
 20
-1.29903
 11
-88.0037
 21
-1.11472
  0
LINE
  8
0
 10
-88.0037
 20
-1.11472
 11
-88.2135
 21
-0.881668
  0
LINE
  8
0
 10
-88.2135
 20
-0.881668
 11
-88.3703
 21
-0.610092
  0
LINE
  8
0
 10
-88.3703
 20
-0.610092
 11
-88.4672
 21
-0.311859
  0
LINE
  8
0
 10
-88.4672
 20
-0.311859
 11
-88.4948
 21
-0.0499878
  0
LINE
  8
0
 10
-88.4948
 20
-0.0499878
 11
-87.05
 21
-0.0499878
  0
LINE
  8
0
 10
-87.05
 20
-0.0499878
 11
-87.05
 21
-1.49178
  0
LINE
  8
0
 10
-87.05
 20
-1.49178
 11
-87.1568
 21
-1.49178
  0
LINE
  8
0
 10
-86.95
 20
-1.49178
 11
-86.95
 21
-0.0499878
  0
LINE
  8
0
 10
-86.95
 20
-0.0499878
 11
-85.5052
 21
-0.0499878
  0
LINE
  8
0
 10
-85.5052
 20
-0.0499878
 11
-85.5328
 21
-0.311859
  0
LINE
  8
0
 10
-85.5328
 20
-0.311859
 11
-85.6297
 21
-0.610092
  0
LINE
  8
0
 10
-85.6297
 20
-0.610092
 11
-85.7865
 21
-0.881668
  0
LINE
  8
0
 10
-85.7865
 20
-0.881668
 11
-85.9963
 21
-1.11472
  0
LINE
  8
0
 10
-85.9963
 20
-1.11472
 11
-86.25
 21
-1.29903
  0
LINE
  8
0
 10
-86.25
 20
-1.29903
 11
-86.5365
 21
-1.42657
  0
LINE
  8
0
 10
-86.5365
 20
-1.42657
 11
-86.8432
 21
-1.49178
  0
LINE
  8
0
 10
-86.8432
 20
-1.49178
 11
-86.95
 21
-1.49178
  0
LINE
  8
0
 10
-95.95
 20
-1.49178
 11
-95.95
 21
-0.0499878
  0
LINE
  8
0
 10
-95.95
 20
-0.0499878
 11
-94.5052
 21
-0.0499878
  0
LINE
  8
0
 10
-94.5052
 20
-0.0499878
 11
-94.5328
 21
-0.311859
  0
LINE
  8
0
 10
-94.5328
 20
-0.311859
 11
-94.6297
 21
-0.610092
  0
LINE
  8
0
 10
-94.6297
 20
-0.610092
 11
-94.7865
 21
-0.881668
  0
LINE
  8
0
 10
-94.7865
 20
-0.881668
 11
-94.9963
 21
-1.11472
  0
LINE
  8
0
 10
-94.9963
 20
-1.11472
 11
-95.25
 21
-1.29903
  0
LINE
  8
0
 10
-95.25
 20
-1.29903
 11
-95.5365
 21
-1.42657
  0
LINE
  8
0
 10
-95.5365
 20
-1.42657
 11
-95.8432
 21
-1.49178
  0
LINE
  8
0
 10
-95.8432
 20
-1.49178
 11
-95.95
 21
-1.49178
  0
LINE
  8
0
 10
-96.1568
 20
-1.49178
 11
-96.4635
 21
-1.42657
  0
LINE
  8
0
 10
-96.4635
 20
-1.42657
 11
-96.75
 21
-1.29903
  0
LINE
  8
0
 10
-96.75
 20
-1.29903
 11
-97.0037
 21
-1.11472
  0
LINE
  8
0
 10
-97.0037
 20
-1.11472
 11
-97.2135
 21
-0.881668
  0
LINE
  8
0
 10
-97.2135
 20
-0.881668
 11
-97.3703
 21
-0.610092
  0
LINE
  8
0
 10
-97.3703
 20
-0.610092
 11
-97.4672
 21
-0.311859
  0
LINE
  8
0
 10
-97.4672
 20
-0.311859
 11
-97.4948
 21
-0.0499878
  0
LINE
  8
0
 10
-97.4948
 20
-0.0499878
 11
-96.05
 21
-0.0499878
  0
LINE
  8
0
 10
-96.05
 20
-0.0499878
 11
-96.05
 21
-1.49178
  0
LINE
  8
0
 10
-96.05
 20
-1.49178
 11
-96.1568
 21
-1.49178
  0
LINE
  8
0
 10
96.05
 20
-1.49178
 11
96.05
 21
-0.0499878
  0
LINE
  8
0
 10
96.05
 20
-0.0499878
 11
97.4948
 21
-0.0499878
  0
LINE
  8
0
 10
97.4948
 20
-0.0499878
 11
97.4672
 21
-0.311859
  0
LINE
  8
0
 10
97.4672
 20
-0.311859
 11
97.3703
 21
-0.610092
  0
LINE
  8
0
 10
97.3703
 20
-0.610092
 11
97.2135
 21
-0.881668
  0
LINE
  8
0
 10
97.2135
 20
-0.881668
 11
97.0037
 21
-1.11472
  0
LINE
  8
0
 10
97.0037
 20
-1.11472
 11
96.75
 21
-1.29903
  0
LINE
  8
0
 10
96.75
 20
-1.29903
 11
96.4635
 21
-1.42657
  0
LINE
  8
0
 10
96.4635
 20
-1.42657
 11
96.1568
 21
-1.49178
  0
LINE
  8
0
 10
96.1568
 20
-1.49178
 11
96.05
 21
-1.49178
  0
LINE
  8
0
 10
-78.1568
 20
-1.49178
 11
-78.4635
 21
-1.42657
  0
LINE
  8
0
 10
-78.4635
 20
-1.42657
 11
-78.75
 21
-1.29903
  0
LINE
  8
0
 10
-78.75
 20
-1.29903
 11
-79.0037
 21
-1.11472
  0
LINE
  8
0
 10
-79.0037
 20
-1.11472
 11
-79.2135
 21
-0.881668
  0
LINE
  8
0
 10
-79.2135
 20
-0.881668
 11
-79.3703
 21
-0.610092
  0
LINE
  8
0
 10
-79.3703
 20
-0.610092
 11
-79.4672
 21
-0.311859
  0
LINE
  8
0
 10
-79.4672
 20
-0.311859
 11
-79.4948
 21
-0.0499878
  0
LINE
  8
0
 10
-79.4948
 20
-0.0499878
 11
-78.05
 21
-0.0499878
  0
LINE
  8
0
 10
-78.05
 20
-0.0499878
 11
-78.05
 21
-1.49178
  0
LINE
  8
0
 10
-78.05
 20
-1.49178
 11
-78.1568
 21
-1.49178
  0
LINE
  8
0
 10
-64.6568
 20
-1.49178
 11
-64.9635
 21
-1.42657
  0
LINE
  8
0
 10
-64.9635
 20
-1.42657
 11
-65.25
 21
-1.29903
  0
LINE
  8
0
 10
-65.25
 20
-1.29903
 11
-65.5037
 21
-1.11472
  0
LINE
  8
0
 10
-65.5037
 20
-1.11472
 11
-65.7135
 21
-0.881668
  0
LINE
  8
0
 10
-65.7135
 20
-0.881668
 11
-65.8703
 21
-0.610092
  0
LINE
  8
0
 10
-65.8703
 20
-0.610092
 11
-65.9672
 21
-0.311859
  0
LINE
  8
0
 10
-65.9672
 20
-0.311859
 11
-65.9948
 21
-0.0499878
  0
LINE
  8
0
 10
-65.9948
 20
-0.0499878
 11
-64.55
 21
-0.0499878
  0
LINE
  8
0
 10
-64.55
 20
-0.0499878
 11
-64.55
 21
-1.49178
  0
LINE
  8
0
 10
-64.55
 20
-1.49178
 11
-64.6568
 21
-1.49178
  0
LINE
  8
0
 10
-64.45
 20
-1.49178
 11
-64.45
 21
-0.0499878
  0
LINE
  8
0
 10
-64.45
 20
-0.0499878
 11
-63.0052
 21
-0.0499878
  0
LINE
  8
0
 10
-63.0052
 20
-0.0499878
 11
-63.0328
 21
-0.311859
  0
LINE
  8
0
 10
-63.0328
 20
-0.311859
 11
-63.1297
 21
-0.610092
  0
LINE
  8
0
 10
-63.1297
 20
-0.610092
 11
-63.2865
 21
-0.881668
  0
LINE
  8
0
 10
-63.2865
 20
-0.881668
 11
-63.4963
 21
-1.11472
  0
LINE
  8
0
 10
-63.4963
 20
-1.11472
 11
-63.75
 21
-1.29903
  0
LINE
  8
0
 10
-63.75
 20
-1.29903
 11
-64.0365
 21
-1.42657
  0
LINE
  8
0
 10
-64.0365
 20
-1.42657
 11
-64.3432
 21
-1.49178
  0
LINE
  8
0
 10
-64.3432
 20
-1.49178
 11
-64.45
 21
-1.49178
  0
LINE
  8
0
 10
87.05
 20
-8.95001
 11
87.05
 21
-7.50525
  0
LINE
  8
0
 10
87.05
 20
-7.50525
 11
87.3119
 21
-7.53279
  0
LINE
  8
0
 10
87.3119
 20
-7.53279
 11
87.6101
 21
-7.62968
  0
LINE
  8
0
 10
87.6101
 20
-7.62968
 11
87.8817
 21
-7.78648
  0
LINE
  8
0
 10
87.8817
 20
-7.78648
 11
88.1147
 21
-7.99631
  0
LINE
  8
0
 10
88.1147
 20
-7.99631
 11
88.299
 21
-8.25
  0
LINE
  8
0
 10
88.299
 20
-8.25
 11
88.4266
 21
-8.53648
  0
LINE
  8
0
 10
88.4266
 20
-8.53648
 11
88.4918
 21
-8.84322
  0
LINE
  8
0
 10
88.4918
 20
-8.84322
 11
88.4918
 21
-8.95001
  0
LINE
  8
0
 10
88.4918
 20
-8.95001
 11
87.05
 21
-8.95001
  0
LINE
  8
0
 10
-86.95
 20
-8.95001
 11
-86.95
 21
-7.50525
  0
LINE
  8
0
 10
-86.95
 20
-7.50525
 11
-86.6881
 21
-7.53279
  0
LINE
  8
0
 10
-86.6881
 20
-7.53279
 11
-86.3899
 21
-7.62968
  0
LINE
  8
0
 10
-86.3899
 20
-7.62968
 11
-86.1183
 21
-7.78648
  0
LINE
  8
0
 10
-86.1183
 20
-7.78648
 11
-85.8853
 21
-7.99631
  0
LINE
  8
0
 10
-85.8853
 20
-7.99631
 11
-85.701
 21
-8.25
  0
LINE
  8
0
 10
-85.701
 20
-8.25
 11
-85.5734
 21
-8.53648
  0
LINE
  8
0
 10
-85.5734
 20
-8.53648
 11
-85.5082
 21
-8.84322
  0
LINE
  8
0
 10
-85.5082
 20
-8.84322
 11
-85.5082
 21
-8.95001
  0
LINE
  8
0
 10
-85.5082
 20
-8.95001
 11
-86.95
 21
-8.95001
  0
LINE
  8
0
 10
85.5082
 20
-8.95001
 11
85.5082
 21
-8.84322
  0
LINE
  8
0
 10
85.5082
 20
-8.84322
 11
85.5734
 21
-8.53648
  0
LINE
  8
0
 10
85.5734
 20
-8.53648
 11
85.701
 21
-8.25
  0
LINE
  8
0
 10
85.701
 20
-8.25
 11
85.8853
 21
-7.99631
  0
LINE
  8
0
 10
85.8853
 20
-7.99631
 11
86.1183
 21
-7.78648
  0
LINE
  8
0
 10
86.1183
 20
-7.78648
 11
86.3899
 21
-7.62968
  0
LINE
  8
0
 10
86.3899
 20
-7.62968
 11
86.6881
 21
-7.53279
  0
LINE
  8
0
 10
86.6881
 20
-7.53279
 11
86.95
 21
-7.50525
  0
LINE
  8
0
 10
86.95
 20
-7.50525
 11
86.95
 21
-8.95001
  0
LINE
  8
0
 10
86.95
 20
-8.95001
 11
85.5082
 21
-8.95001
  0
LINE
  8
0
 10
-88.4918
 20
-8.95001
 11
-88.4918
 21
-8.84322
  0
LINE
  8
0
 10
-88.4918
 20
-8.84322
 11
-88.4266
 21
-8.53648
  0
LINE
  8
0
 10
-88.4266
 20
-8.53648
 11
-88.299
 21
-8.25
  0
LINE
  8
0
 10
-88.299
 20
-8.25
 11
-88.1147
 21
-7.99631
  0
LINE
  8
0
 10
-88.1147
 20
-7.99631
 11
-87.8817
 21
-7.78648
  0
LINE
  8
0
 10
-87.8817
 20
-7.78648
 11
-87.6101
 21
-7.62968
  0
LINE
  8
0
 10
-87.6101
 20
-7.62968
 11
-87.3119
 21
-7.53279
  0
LINE
  8
0
 10
-87.3119
 20
-7.53279
 11
-87.05
 21
-7.50525
  0
LINE
  8
0
 10
-87.05
 20
-7.50525
 11
-87.05
 21
-8.95001
  0
LINE
  8
0
 10
-87.05
 20
-8.95001
 11
-88.4918
 21
-8.95001
  0
LINE
  8
0
 10
-86.95
 20
-9.04999
 11
-85.5082
 21
-9.04999
  0
LINE
  8
0
 10
-85.5082
 20
-9.04999
 11
-85.5082
 21
-9.15678
  0
LINE
  8
0
 10
-85.5082
 20
-9.15678
 11
-85.5734
 21
-9.46352
  0
LINE
  8
0
 10
-85.5734
 20
-9.46352
 11
-85.701
 21
-9.75
  0
LINE
  8
0
 10
-85.701
 20
-9.75
 11
-85.8853
 21
-10.0037
  0
LINE
  8
0
 10
-85.8853
 20
-10.0037
 11
-86.1183
 21
-10.2135
  0
LINE
  8
0
 10
-86.1183
 20
-10.2135
 11
-86.3899
 21
-10.3703
  0
LINE
  8
0
 10
-86.3899
 20
-10.3703
 11
-86.6881
 21
-10.4672
  0
LINE
  8
0
 10
-86.6881
 20
-10.4672
 11
-86.95
 21
-10.4948
  0
LINE
  8
0
 10
-86.95
 20
-10.4948
 11
-86.95
 21
-9.04999
  0
LINE
  8
0
 10
86.6881
 20
-10.4672
 11
86.3899
 21
-10.3703
  0
LINE
  8
0
 10
86.3899
 20
-10.3703
 11
86.1183
 21
-10.2135
  0
LINE
  8
0
 10
86.1183
 20
-10.2135
 11
85.8853
 21
-10.0037
  0
LINE
  8
0
 10
85.8853
 20
-10.0037
 11
85.701
 21
-9.75
  0
LINE
  8
0
 10
85.701
 20
-9.75
 11
85.5734
 21
-9.46352
  0
LINE
  8
0
 10
85.5734
 20
-9.46352
 11
85.5082
 21
-9.15678
  0
LINE
  8
0
 10
85.5082
 20
-9.15678
 11
85.5082
 21
-9.04999
  0
LINE
  8
0
 10
85.5082
 20
-9.04999
 11
86.95
 21
-9.04999
  0
LINE
  8
0
 10
86.95
 20
-9.04999
 11
86.95
 21
-10.4948
  0
LINE
  8
0
 10
86.95
 20
-10.4948
 11
86.6881
 21
-10.4672
  0
LINE
  8
0
 10
87.05
 20
-9.04999
 11
88.4918
 21
-9.04999
  0
LINE
  8
0
 10
88.4918
 20
-9.04999
 11
88.4918
 21
-9.15678
  0
LINE
  8
0
 10
88.4918
 20
-9.15678
 11
88.4266
 21
-9.46352
  0
LINE
  8
0
 10
88.4266
 20
-9.46352
 11
88.299
 21
-9.75
  0
LINE
  8
0
 10
88.299
 20
-9.75
 11
88.1147
 21
-10.0037
  0
LINE
  8
0
 10
88.1147
 20
-10.0037
 11
87.8817
 21
-10.2135
  0
LINE
  8
0
 10
87.8817
 20
-10.2135
 11
87.6101
 21
-10.3703
  0
LINE
  8
0
 10
87.6101
 20
-10.3703
 11
87.3119
 21
-10.4672
  0
LINE
  8
0
 10
87.3119
 20
-10.4672
 11
87.05
 21
-10.4948
  0
LINE
  8
0
 10
87.05
 20
-10.4948
 11
87.05
 21
-9.04999
  0
LINE
  8
0
 10
-87.3119
 20
-10.4672
 11
-87.6101
 21
-10.3703
  0
LINE
  8
0
 10
-87.6101
 20
-10.3703
 11
-87.8817
 21
-10.2135
  0
LINE
  8
0
 10
-87.8817
 20
-10.2135
 11
-88.1147
 21
-10.0037
  0
LINE
  8
0
 10
-88.1147
 20
-10.0037
 11
-88.299
 21
-9.75
  0
LINE
  8
0
 10
-88.299
 20
-9.75
 11
-88.4266
 21
-9.46352
  0
LINE
  8
0
 10
-88.4266
 20
-9.46352
 11
-88.4918
 21
-9.15678
  0
LINE
  8
0
 10
-88.4918
 20
-9.15678
 11
-88.4918
 21
-9.04999
  0
LINE
  8
0
 10
-88.4918
 20
-9.04999
 11
-87.05
 21
-9.04999
  0
LINE
  8
0
 10
-87.05
 20
-9.04999
 11
-87.05
 21
-10.4948
  0
LINE
  8
0
 10
-87.05
 20
-10.4948
 11
-87.3119
 21
-10.4672
  0
LINE
  8
0
 10
-1.49178
 20
-64.45
 11
-1.49178
 21
-64.3432
  0
LINE
  8
0
 10
-1.49178
 20
-64.3432
 11
-1.42657
 21
-64.0365
  0
LINE
  8
0
 10
-1.42657
 20
-64.0365
 11
-1.29903
 21
-63.75
  0
LINE
  8
0
 10
-1.29903
 20
-63.75
 11
-1.11472
 21
-63.4963
  0
LINE
  8
0
 10
-1.11472
 20
-63.4963
 11
-0.881668
 21
-63.2865
  0
LINE
  8
0
 10
-0.881668
 20
-63.2865
 11
-0.610092
 21
-63.1297
  0
LINE
  8
0
 10
-0.610092
 20
-63.1297
 11
-0.311859
 21
-63.0328
  0
LINE
  8
0
 10
-0.311859
 20
-63.0328
 11
-0.0499878
 21
-63.0052
  0
LINE
  8
0
 10
-0.0499878
 20
-63.0052
 11
-0.0499878
 21
-64.45
  0
LINE
  8
0
 10
-0.0499878
 20
-64.45
 11
-1.49178
 21
-64.45
  0
LINE
  8
0
 10
0.0499878
 20
-64.45
 11
0.0499878
 21
-63.0052
  0
LINE
  8
0
 10
0.0499878
 20
-63.0052
 11
0.311859
 21
-63.0328
  0
LINE
  8
0
 10
0.311859
 20
-63.0328
 11
0.610092
 21
-63.1297
  0
LINE
  8
0
 10
0.610092
 20
-63.1297
 11
0.881668
 21
-63.2865
  0
LINE
  8
0
 10
0.881668
 20
-63.2865
 11
1.11472
 21
-63.4963
  0
LINE
  8
0
 10
1.11472
 20
-63.4963
 11
1.29903
 21
-63.75
  0
LINE
  8
0
 10
1.29903
 20
-63.75
 11
1.42657
 21
-64.0365
  0
LINE
  8
0
 10
1.42657
 20
-64.0365
 11
1.49178
 21
-64.3432
  0
LINE
  8
0
 10
1.49178
 20
-64.3432
 11
1.49178
 21
-64.45
  0
LINE
  8
0
 10
1.49178
 20
-64.45
 11
0.0499878
 21
-64.45
  0
LINE
  8
0
 10
0.0499878
 20
-64.55
 11
1.49178
 21
-64.55
  0
LINE
  8
0
 10
1.49178
 20
-64.55
 11
1.49178
 21
-64.6568
  0
LINE
  8
0
 10
1.49178
 20
-64.6568
 11
1.42657
 21
-64.9635
  0
LINE
  8
0
 10
1.42657
 20
-64.9635
 11
1.29903
 21
-65.25
  0
LINE
  8
0
 10
1.29903
 20
-65.25
 11
1.11472
 21
-65.5037
  0
LINE
  8
0
 10
1.11472
 20
-65.5037
 11
0.881668
 21
-65.7135
  0
LINE
  8
0
 10
0.881668
 20
-65.7135
 11
0.610092
 21
-65.8703
  0
LINE
  8
0
 10
0.610092
 20
-65.8703
 11
0.311859
 21
-65.9672
  0
LINE
  8
0
 10
0.311859
 20
-65.9672
 11
0.0499878
 21
-65.9948
  0
LINE
  8
0
 10
0.0499878
 20
-65.9948
 11
0.0499878
 21
-64.55
  0
LINE
  8
0
 10
-0.311859
 20
-65.9672
 11
-0.610092
 21
-65.8703
  0
LINE
  8
0
 10
-0.610092
 20
-65.8703
 11
-0.881668
 21
-65.7135
  0
LINE
  8
0
 10
-0.881668
 20
-65.7135
 11
-1.11472
 21
-65.5037
  0
LINE
  8
0
 10
-1.11472
 20
-65.5037
 11
-1.29903
 21
-65.25
  0
LINE
  8
0
 10
-1.29903
 20
-65.25
 11
-1.42657
 21
-64.9635
  0
LINE
  8
0
 10
-1.42657
 20
-64.9635
 11
-1.49178
 21
-64.6568
  0
LINE
  8
0
 10
-1.49178
 20
-64.6568
 11
-1.49178
 21
-64.55
  0
LINE
  8
0
 10
-1.49178
 20
-64.55
 11
-0.0499878
 21
-64.55
  0
LINE
  8
0
 10
-0.0499878
 20
-64.55
 11
-0.0499878
 21
-65.9948
  0
LINE
  8
0
 10
-0.0499878
 20
-65.9948
 11
-0.311859
 21
-65.9672
  0
LINE
  8
0
 10
-1.49178
 20
-77.95
 11
-1.49178
 21
-77.8432
  0
LINE
  8
0
 10
-1.49178
 20
-77.8432
 11
-1.42657
 21
-77.5365
  0
LINE
  8
0
 10
-1.42657
 20
-77.5365
 11
-1.29903
 21
-77.25
  0
LINE
  8
0
 10
-1.29903
 20
-77.25
 11
-1.11472
 21
-76.9963
  0
LINE
  8
0
 10
-1.11472
 20
-76.9963
 11
-0.881668
 21
-76.7865
  0
LINE
  8
0
 10
-0.881668
 20
-76.7865
 11
-0.610092
 21
-76.6297
  0
LINE
  8
0
 10
-0.610092
 20
-76.6297
 11
-0.311859
 21
-76.5328
  0
LINE
  8
0
 10
-0.311859
 20
-76.5328
 11
-0.0499878
 21
-76.5052
  0
LINE
  8
0
 10
-0.0499878
 20
-76.5052
 11
-0.0499878
 21
-77.95
  0
LINE
  8
0
 10
-0.0499878
 20
-77.95
 11
-1.49178
 21
-77.95
  0
LINE
  8
0
 10
0.0499878
 20
-77.95
 11
0.0499878
 21
-76.5052
  0
LINE
  8
0
 10
0.0499878
 20
-76.5052
 11
0.311859
 21
-76.5328
  0
LINE
  8
0
 10
0.311859
 20
-76.5328
 11
0.610092
 21
-76.6297
  0
LINE
  8
0
 10
0.610092
 20
-76.6297
 11
0.881668
 21
-76.7865
  0
LINE
  8
0
 10
0.881668
 20
-76.7865
 11
1.11472
 21
-76.9963
  0
LINE
  8
0
 10
1.11472
 20
-76.9963
 11
1.29903
 21
-77.25
  0
LINE
  8
0
 10
1.29903
 20
-77.25
 11
1.42657
 21
-77.5365
  0
LINE
  8
0
 10
1.42657
 20
-77.5365
 11
1.49178
 21
-77.8432
  0
LINE
  8
0
 10
1.49178
 20
-77.8432
 11
1.49178
 21
-77.95
  0
LINE
  8
0
 10
1.49178
 20
-77.95
 11
0.0499878
 21
-77.95
  0
LINE
  8
0
 10
-0.311859
 20
-79.4672
 11
-0.610092
 21
-79.3703
  0
LINE
  8
0
 10
-0.610092
 20
-79.3703
 11
-0.881668
 21
-79.2135
  0
LINE
  8
0
 10
-0.881668
 20
-79.2135
 11
-1.11472
 21
-79.0037
  0
LINE
  8
0
 10
-1.11472
 20
-79.0037
 11
-1.29903
 21
-78.75
  0
LINE
  8
0
 10
-1.29903
 20
-78.75
 11
-1.42657
 21
-78.4635
  0
LINE
  8
0
 10
-1.42657
 20
-78.4635
 11
-1.49178
 21
-78.1568
  0
LINE
  8
0
 10
-1.49178
 20
-78.1568
 11
-1.49178
 21
-78.05
  0
LINE
  8
0
 10
-1.49178
 20
-78.05
 11
-0.0499878
 21
-78.05
  0
LINE
  8
0
 10
-0.0499878
 20
-78.05
 11
-0.0499878
 21
-79.4948
  0
LINE
  8
0
 10
-0.0499878
 20
-79.4948
 11
-0.311859
 21
-79.4672
  0
LINE
  8
0
 10
0.0499878
 20
-78.05
 11
1.49178
 21
-78.05
  0
LINE
  8
0
 10
1.49178
 20
-78.05
 11
1.49178
 21
-78.1568
  0
LINE
  8
0
 10
1.49178
 20
-78.1568
 11
1.42657
 21
-78.4635
  0
LINE
  8
0
 10
1.42657
 20
-78.4635
 11
1.29903
 21
-78.75
  0
LINE
  8
0
 10
1.29903
 20
-78.75
 11
1.11472
 21
-79.0037
  0
LINE
  8
0
 10
1.11472
 20
-79.0037
 11
0.881668
 21
-79.2135
  0
LINE
  8
0
 10
0.881668
 20
-79.2135
 11
0.610092
 21
-79.3703
  0
LINE
  8
0
 10
0.610092
 20
-79.3703
 11
0.311859
 21
-79.4672
  0
LINE
  8
0
 10
0.311859
 20
-79.4672
 11
0.0499878
 21
-79.4948
  0
LINE
  8
0
 10
0.0499878
 20
-79.4948
 11
0.0499878
 21
-78.05
  0
LINE
  8
0
 10
-1.49178
 20
-86.95
 11
-1.49178
 21
-86.8432
  0
LINE
  8
0
 10
-1.49178
 20
-86.8432
 11
-1.42657
 21
-86.5365
  0
LINE
  8
0
 10
-1.42657
 20
-86.5365
 11
-1.29903
 21
-86.25
  0
LINE
  8
0
 10
-1.29903
 20
-86.25
 11
-1.11472
 21
-85.9963
  0
LINE
  8
0
 10
-1.11472
 20
-85.9963
 11
-0.881668
 21
-85.7865
  0
LINE
  8
0
 10
-0.881668
 20
-85.7865
 11
-0.610092
 21
-85.6297
  0
LINE
  8
0
 10
-0.610092
 20
-85.6297
 11
-0.311859
 21
-85.5328
  0
LINE
  8
0
 10
-0.311859
 20
-85.5328
 11
-0.0499878
 21
-85.5052
  0
LINE
  8
0
 10
-0.0499878
 20
-85.5052
 11
-0.0499878
 21
-86.95
  0
LINE
  8
0
 10
-0.0499878
 20
-86.95
 11
-1.49178
 21
-86.95
  0
LINE
  8
0
 10
0.0499878
 20
-86.95
 11
0.0499878
 21
-85.5052
  0
LINE
  8
0
 10
0.0499878
 20
-85.5052
 11
0.311859
 21
-85.5328
  0
LINE
  8
0
 10
0.311859
 20
-85.5328
 11
0.610092
 21
-85.6297
  0
LINE
  8
0
 10
0.610092
 20
-85.6297
 11
0.881668
 21
-85.7865
  0
LINE
  8
0
 10
0.881668
 20
-85.7865
 11
1.11472
 21
-85.9963
  0
LINE
  8
0
 10
1.11472
 20
-85.9963
 11
1.29903
 21
-86.25
  0
LINE
  8
0
 10
1.29903
 20
-86.25
 11
1.42657
 21
-86.5365
  0
LINE
  8
0
 10
1.42657
 20
-86.5365
 11
1.49178
 21
-86.8432
  0
LINE
  8
0
 10
1.49178
 20
-86.8432
 11
1.49178
 21
-86.95
  0
LINE
  8
0
 10
1.49178
 20
-86.95
 11
0.0499878
 21
-86.95
  0
LINE
  8
0
 10
7.50525
 20
-86.95
 11
7.53279
 21
-86.6881
  0
LINE
  8
0
 10
7.53279
 20
-86.6881
 11
7.62968
 21
-86.3899
  0
LINE
  8
0
 10
7.62968
 20
-86.3899
 11
7.78648
 21
-86.1183
  0
LINE
  8
0
 10
7.78648
 20
-86.1183
 11
7.99631
 21
-85.8853
  0
LINE
  8
0
 10
7.99631
 20
-85.8853
 11
8.25
 21
-85.701
  0
LINE
  8
0
 10
8.25
 20
-85.701
 11
8.53648
 21
-85.5734
  0
LINE
  8
0
 10
8.53648
 20
-85.5734
 11
8.84322
 21
-85.5082
  0
LINE
  8
0
 10
8.84322
 20
-85.5082
 11
8.95001
 21
-85.5082
  0
LINE
  8
0
 10
8.95001
 20
-85.5082
 11
8.95001
 21
-86.95
  0
LINE
  8
0
 10
8.95001
 20
-86.95
 11
7.50525
 21
-86.95
  0
LINE
  8
0
 10
9.04999
 20
-86.95
 11
9.04999
 21
-85.5082
  0
LINE
  8
0
 10
9.04999
 20
-85.5082
 11
9.15678
 21
-85.5082
  0
LINE
  8
0
 10
9.15678
 20
-85.5082
 11
9.46352
 21
-85.5734
  0
LINE
  8
0
 10
9.46352
 20
-85.5734
 11
9.75
 21
-85.701
  0
LINE
  8
0
 10
9.75
 20
-85.701
 11
10.0037
 21
-85.8853
  0
LINE
  8
0
 10
10.0037
 20
-85.8853
 11
10.2135
 21
-86.1183
  0
LINE
  8
0
 10
10.2135
 20
-86.1183
 11
10.3703
 21
-86.3899
  0
LINE
  8
0
 10
10.3703
 20
-86.3899
 11
10.4672
 21
-86.6881
  0
LINE
  8
0
 10
10.4672
 20
-86.6881
 11
10.4948
 21
-86.95
  0
LINE
  8
0
 10
10.4948
 20
-86.95
 11
9.04999
 21
-86.95
  0
LINE
  8
0
 10
-8.95001
 20
-86.95
 11
-8.95001
 21
-85.5082
  0
LINE
  8
0
 10
-8.95001
 20
-85.5082
 11
-8.84322
 21
-85.5082
  0
LINE
  8
0
 10
-8.84322
 20
-85.5082
 11
-8.53648
 21
-85.5734
  0
LINE
  8
0
 10
-8.53648
 20
-85.5734
 11
-8.25
 21
-85.701
  0
LINE
  8
0
 10
-8.25
 20
-85.701
 11
-7.99631
 21
-85.8853
  0
LINE
  8
0
 10
-7.99631
 20
-85.8853
 11
-7.78648
 21
-86.1183
  0
LINE
  8
0
 10
-7.78648
 20
-86.1183
 11
-7.62968
 21
-86.3899
  0
LINE
  8
0
 10
-7.62968
 20
-86.3899
 11
-7.53279
 21
-86.6881
  0
LINE
  8
0
 10
-7.53279
 20
-86.6881
 11
-7.50525
 21
-86.95
  0
LINE
  8
0
 10
-7.50525
 20
-86.95
 11
-8.95001
 21
-86.95
  0
LINE
  8
0
 10
-10.4948
 20
-86.95
 11
-10.4672
 21
-86.6881
  0
LINE
  8
0
 10
-10.4672
 20
-86.6881
 11
-10.3703
 21
-86.3899
  0
LINE
  8
0
 10
-10.3703
 20
-86.3899
 11
-10.2135
 21
-86.1183
  0
LINE
  8
0
 10
-10.2135
 20
-86.1183
 11
-10.0037
 21
-85.8853
  0
LINE
  8
0
 10
-10.0037
 20
-85.8853
 11
-9.75
 21
-85.701
  0
LINE
  8
0
 10
-9.75
 20
-85.701
 11
-9.46352
 21
-85.5734
  0
LINE
  8
0
 10
-9.46352
 20
-85.5734
 11
-9.15678
 21
-85.5082
  0
LINE
  8
0
 10
-9.15678
 20
-85.5082
 11
-9.04999
 21
-85.5082
  0
LINE
  8
0
 10
-9.04999
 20
-85.5082
 11
-9.04999
 21
-86.95
  0
LINE
  8
0
 10
-9.04999
 20
-86.95
 11
-10.4948
 21
-86.95
  0
LINE
  8
0
 10
8.84322
 20
-88.4918
 11
8.53648
 21
-88.4266
  0
LINE
  8
0
 10
8.53648
 20
-88.4266
 11
8.25
 21
-88.299
  0
LINE
  8
0
 10
8.25
 20
-88.299
 11
7.99631
 21
-88.1147
  0
LINE
  8
0
 10
7.99631
 20
-88.1147
 11
7.78648
 21
-87.8817
  0
LINE
  8
0
 10
7.78648
 20
-87.8817
 11
7.62968
 21
-87.6101
  0
LINE
  8
0
 10
7.62968
 20
-87.6101
 11
7.53279
 21
-87.3119
  0
LINE
  8
0
 10
7.53279
 20
-87.3119
 11
7.50525
 21
-87.05
  0
LINE
  8
0
 10
7.50525
 20
-87.05
 11
8.95001
 21
-87.05
  0
LINE
  8
0
 10
8.95001
 20
-87.05
 11
8.95001
 21
-88.4918
  0
LINE
  8
0
 10
8.95001
 20
-88.4918
 11
8.84322
 21
-88.4918
  0
LINE
  8
0
 10
9.04999
 20
-88.4918
 11
9.04999
 21
-87.05
  0
LINE
  8
0
 10
9.04999
 20
-87.05
 11
10.4948
 21
-87.05
  0
LINE
  8
0
 10
10.4948
 20
-87.05
 11
10.4672
 21
-87.3119
  0
LINE
  8
0
 10
10.4672
 20
-87.3119
 11
10.3703
 21
-87.6101
  0
LINE
  8
0
 10
10.3703
 20
-87.6101
 11
10.2135
 21
-87.8817
  0
LINE
  8
0
 10
10.2135
 20
-87.8817
 11
10.0037
 21
-88.1147
  0
LINE
  8
0
 10
10.0037
 20
-88.1147
 11
9.75
 21
-88.299
  0
LINE
  8
0
 10
9.75
 20
-88.299
 11
9.46352
 21
-88.4266
  0
LINE
  8
0
 10
9.46352
 20
-88.4266
 11
9.15678
 21
-88.4918
  0
LINE
  8
0
 10
9.15678
 20
-88.4918
 11
9.04999
 21
-88.4918
  0
LINE
  8
0
 10
0.0499878
 20
-87.05
 11
1.49178
 21
-87.05
  0
LINE
  8
0
 10
1.49178
 20
-87.05
 11
1.49178
 21
-87.1568
  0
LINE
  8
0
 10
1.49178
 20
-87.1568
 11
1.42657
 21
-87.4635
  0
LINE
  8
0
 10
1.42657
 20
-87.4635
 11
1.29903
 21
-87.75
  0
LINE
  8
0
 10
1.29903
 20
-87.75
 11
1.11472
 21
-88.0037
  0
LINE
  8
0
 10
1.11472
 20
-88.0037
 11
0.881668
 21
-88.2135
  0
LINE
  8
0
 10
0.881668
 20
-88.2135
 11
0.610092
 21
-88.3703
  0
LINE
  8
0
 10
0.610092
 20
-88.3703
 11
0.311859
 21
-88.4672
  0
LINE
  8
0
 10
0.311859
 20
-88.4672
 11
0.0499878
 21
-88.4948
  0
LINE
  8
0
 10
0.0499878
 20
-88.4948
 11
0.0499878
 21
-87.05
  0
LINE
  8
0
 10
-0.311859
 20
-88.4672
 11
-0.610092
 21
-88.3703
  0
LINE
  8
0
 10
-0.610092
 20
-88.3703
 11
-0.881668
 21
-88.2135
  0
LINE
  8
0
 10
-0.881668
 20
-88.2135
 11
-1.11472
 21
-88.0037
  0
LINE
  8
0
 10
-1.11472
 20
-88.0037
 11
-1.29903
 21
-87.75
  0
LINE
  8
0
 10
-1.29903
 20
-87.75
 11
-1.42657
 21
-87.4635
  0
LINE
  8
0
 10
-1.42657
 20
-87.4635
 11
-1.49178
 21
-87.1568
  0
LINE
  8
0
 10
-1.49178
 20
-87.1568
 11
-1.49178
 21
-87.05
  0
LINE
  8
0
 10
-1.49178
 20
-87.05
 11
-0.0499878
 21
-87.05
  0
LINE
  8
0
 10
-0.0499878
 20
-87.05
 11
-0.0499878
 21
-88.4948
  0
LINE
  8
0
 10
-0.0499878
 20
-88.4948
 11
-0.311859
 21
-88.4672
  0
LINE
  8
0
 10
-8.95001
 20
-88.4918
 11
-8.95001
 21
-87.05
  0
LINE
  8
0
 10
-8.95001
 20
-87.05
 11
-7.50525
 21
-87.05
  0
LINE
  8
0
 10
-7.50525
 20
-87.05
 11
-7.53279
 21
-87.3119
  0
LINE
  8
0
 10
-7.53279
 20
-87.3119
 11
-7.62968
 21
-87.6101
  0
LINE
  8
0
 10
-7.62968
 20
-87.6101
 11
-7.78648
 21
-87.8817
  0
LINE
  8
0
 10
-7.78648
 20
-87.8817
 11
-7.99631
 21
-88.1147
  0
LINE
  8
0
 10
-7.99631
 20
-88.1147
 11
-8.25
 21
-88.299
  0
LINE
  8
0
 10
-8.25
 20
-88.299
 11
-8.53648
 21
-88.4266
  0
LINE
  8
0
 10
-8.53648
 20
-88.4266
 11
-8.84322
 21
-88.4918
  0
LINE
  8
0
 10
-8.84322
 20
-88.4918
 11
-8.95001
 21
-88.4918
  0
LINE
  8
0
 10
-9.15678
 20
-88.4918
 11
-9.46352
 21
-88.4266
  0
LINE
  8
0
 10
-9.46352
 20
-88.4266
 11
-9.75
 21
-88.299
  0
LINE
  8
0
 10
-9.75
 20
-88.299
 11
-10.0037
 21
-88.1147
  0
LINE
  8
0
 10
-10.0037
 20
-88.1147
 11
-10.2135
 21
-87.8817
  0
LINE
  8
0
 10
-10.2135
 20
-87.8817
 11
-10.3703
 21
-87.6101
  0
LINE
  8
0
 10
-10.3703
 20
-87.6101
 11
-10.4672
 21
-87.3119
  0
LINE
  8
0
 10
-10.4672
 20
-87.3119
 11
-10.4948
 21
-87.05
  0
LINE
  8
0
 10
-10.4948
 20
-87.05
 11
-9.04999
 21
-87.05
  0
LINE
  8
0
 10
-9.04999
 20
-87.05
 11
-9.04999
 21
-88.4918
  0
LINE
  8
0
 10
-9.04999
 20
-88.4918
 11
-9.15678
 21
-88.4918
  0
LINE
  8
0
 10
0.0499878
 20
-95.95
 11
0.0499878
 21
-94.5052
  0
LINE
  8
0
 10
0.0499878
 20
-94.5052
 11
0.311859
 21
-94.5328
  0
LINE
  8
0
 10
0.311859
 20
-94.5328
 11
0.610092
 21
-94.6297
  0
LINE
  8
0
 10
0.610092
 20
-94.6297
 11
0.881668
 21
-94.7865
  0
LINE
  8
0
 10
0.881668
 20
-94.7865
 11
1.11472
 21
-94.9963
  0
LINE
  8
0
 10
1.11472
 20
-94.9963
 11
1.29903
 21
-95.25
  0
LINE
  8
0
 10
1.29903
 20
-95.25
 11
1.42657
 21
-95.5365
  0
LINE
  8
0
 10
1.42657
 20
-95.5365
 11
1.49178
 21
-95.8432
  0
LINE
  8
0
 10
1.49178
 20
-95.8432
 11
1.49178
 21
-95.95
  0
LINE
  8
0
 10
1.49178
 20
-95.95
 11
0.0499878
 21
-95.95
  0
LINE
  8
0
 10
-1.49178
 20
-95.95
 11
-1.49178
 21
-95.8432
  0
LINE
  8
0
 10
-1.49178
 20
-95.8432
 11
-1.42657
 21
-95.5365
  0
LINE
  8
0
 10
-1.42657
 20
-95.5365
 11
-1.29903
 21
-95.25
  0
LINE
  8
0
 10
-1.29903
 20
-95.25
 11
-1.11472
 21
-94.9963
  0
LINE
  8
0
 10
-1.11472
 20
-94.9963
 11
-0.881668
 21
-94.7865
  0
LINE
  8
0
 10
-0.881668
 20
-94.7865
 11
-0.610092
 21
-94.6297
  0
LINE
  8
0
 10
-0.610092
 20
-94.6297
 11
-0.311859
 21
-94.5328
  0
LINE
  8
0
 10
-0.311859
 20
-94.5328
 11
-0.0499878
 21
-94.5052
  0
LINE
  8
0
 10
-0.0499878
 20
-94.5052
 11
-0.0499878
 21
-95.95
  0
LINE
  8
0
 10
-0.0499878
 20
-95.95
 11
-1.49178
 21
-95.95
  0
LINE
  8
0
 10
0.0499878
 20
-96.05
 11
1.49178
 21
-96.05
  0
LINE
  8
0
 10
1.49178
 20
-96.05
 11
1.49178
 21
-96.1568
  0
LINE
  8
0
 10
1.49178
 20
-96.1568
 11
1.42657
 21
-96.4635
  0
LINE
  8
0
 10
1.42657
 20
-96.4635
 11
1.29903
 21
-96.75
  0
LINE
  8
0
 10
1.29903
 20
-96.75
 11
1.11472
 21
-97.0037
  0
LINE
  8
0
 10
1.11472
 20
-97.0037
 11
0.881668
 21
-97.2135
  0
LINE
  8
0
 10
0.881668
 20
-97.2135
 11
0.610092
 21
-97.3703
  0
LINE
  8
0
 10
0.610092
 20
-97.3703
 11
0.311859
 21
-97.4672
  0
LINE
  8
0
 10
0.311859
 20
-97.4672
 11
0.0499878
 21
-97.4948
  0
LINE
  8
0
 10
0.0499878
 20
-97.4948
 11
0.0499878
 21
-96.05
  0
LINE
  8
0
 10
-0.311859
 20
-97.4672
 11
-0.610092
 21
-97.3703
  0
LINE
  8
0
 10
-0.610092
 20
-97.3703
 11
-0.881668
 21
-97.2135
  0
LINE
  8
0
 10
-0.881668
 20
-97.2135
 11
-1.11472
 21
-97.0037
  0
LINE
  8
0
 10
-1.11472
 20
-97.0037
 11
-1.29903
 21
-96.75
  0
LINE
  8
0
 10
-1.29903
 20
-96.75
 11
-1.42657
 21
-96.4635
  0
LINE
  8
0
 10
-1.42657
 20
-96.4635
 11
-1.49178
 21
-96.1568
  0
LINE
  8
0
 10
-1.49178
 20
-96.1568
 11
-1.49178
 21
-96.05
  0
LINE
  8
0
 10
-1.49178
 20
-96.05
 11
-0.0499878
 21
-96.05
  0
LINE
  8
0
 10
-0.0499878
 20
-96.05
 11
-0.0499878
 21
-97.4948
  0
LINE
  8
0
 10
-0.0499878
 20
-97.4948
 11
-0.311859
 21
-97.4672
  0
ENDSEC
  0
SECTION
  2
OBJECTS
  0
DICTIONARY
  0
ENDSEC
  0
EOF
