  0
SECTION
  2
BLOCKS
  0
ENDSEC
  0
SECTION
  2
ENTITIES
  0
LINE
  8
0
 10
0.475601
 20
-64.45
 11
0.0499878
 21
-64.45
  0
LINE
  8
0
 10
0.0499878
 20
-64.45
 11
0.0499878
 21
-63.0052
  0
LINE
  8
0
 10
0.0499878
 20
-63.0052
 11
0.311859
 21
-63.0328
  0
LINE
  8
0
 10
0.311859
 20
-63.0328
 11
0.610092
 21
-63.1297
  0
LINE
  8
0
 10
0.610092
 20
-63.1297
 11
0.881668
 21
-63.2865
  0
LINE
  8
0
 10
0.881668
 20
-63.2865
 11
1.11472
 21
-63.4963
  0
LINE
  8
0
 10
1.11472
 20
-63.4963
 11
1.29903
 21
-63.75
  0
LINE
  8
0
 10
1.29903
 20
-63.75
 11
1.42657
 21
-64.0365
  0
LINE
  8
0
 10
1.42657
 20
-64.0365
 11
1.49178
 21
-64.3432
  0
LINE
  8
0
 10
1.49178
 20
-64.3432
 11
7.90063
 21
-63.6696
  0
LINE
  8
0
 10
7.90063
 20
-63.6696
 11
19.4681
 21
-59.9165
  0
LINE
  8
0
 10
19.4681
 20
-59.9165
 11
31.5
 21
-54.5596
  0
LINE
  8
0
 10
31.5
 20
-54.5596
 11
42.1552
 21
-46.8181
  0
LINE
  8
0
 10
42.1552
 20
-46.8181
 11
50.9681
 21
-37.0305
  0
LINE
  8
0
 10
50.9681
 20
-37.0305
 11
57.5534
 21
-25.6244
  0
LINE
  8
0
 10
57.5534
 20
-25.6244
 11
61.2147
 21
-15.456
  0
LINE
  8
0
 10
61.2147
 20
-15.456
 11
63.6696
 21
-7.90063
  0
LINE
  8
0
 10
63.6696
 20
-7.90063
 11
64.3432
 21
-1.49178
  0
LINE
  8
0
 10
64.3432
 20
-1.49178
 11
64.0365
 21
-1.42657
  0
LINE
  8
0
 10
64.0365
 20
-1.42657
 11
63.75
 21
-1.29903
  0
LINE
  8
0
 10
63.75
 20
-1.29903
 11
63.4963
 21
-1.11472
  0
LINE
  8
0
 10
63.4963
 20
-1.11472
 11
63.2865
 21
-0.881668
  0
LINE
  8
0
 10
63.2865
 20
-0.881668
 11
63.1297
 21
-0.610092
  0
LINE
  8
0
 10
63.1297
 20
-0.610092
 11
63.0328
 21
-0.311859
  0
LINE
  8
0
 10
63.0328
 20
-0.311859
 11
63.0052
 21
-0.0499878
  0
LINE
  8
0
 10
63.0052
 20
-0.0499878
 11
64.45
 21
-0.0499878
  0
LINE
  8
0
 10
64.45
 20
-0.0499878
 11
64.45
 21
-0.475601
  0
LINE
  8
0
 10
64.45
 20
-0.475601
 11
64.5
 21
0
  0
LINE
  8
0
 10
64.5
 20
0
 11
64.45
 21
0.475601
  0
LINE
  8
0
 10
64.45
 20
0.475601
 11
64.45
 21
0.0499878
  0
LINE
  8
0
 10
64.45
 20
0.0499878
 11
63.0052
 21
0.0499878
  0
LINE
  8
0
 10
63.0052
 20
0.0499878
 11
63.0328
 21
0.311859
  0
LINE
  8
0
 10
63.0328
 20
0.311859
 11
63.1297
 21
0.610092
  0
LINE
  8
0
 10
63.1297
 20
0.610092
 11
63.2865
 21
0.881668
  0
LINE
  8
0
 10
63.2865
 20
0.881668
 11
63.4963
 21
1.11472
  0
LINE
  8
0
 10
63.4963
 20
1.11472
 11
63.75
 21
1.29903
  0
LINE
  8
0
 10
63.75
 20
1.29903
 11
64.0365
 21
1.42657
  0
LINE
  8
0
 10
64.0365
 20
1.42657
 11
64.3432
 21
1.49178
  0
LINE
  8
0
 10
64.3432
 20
1.49178
 11
63.6696
 21
7.90063
  0
LINE
  8
0
 10
63.6696
 20
7.90063
 11
61.2147
 21
15.456
  0
LINE
  8
0
 10
61.2147
 20
15.456
 11
57.5534
 21
25.6244
  0
LINE
  8
0
 10
57.5534
 20
25.6244
 11
50.9681
 21
37.0305
  0
LINE
  8
0
 10
50.9681
 20
37.0305
 11
42.1552
 21
46.8181
  0
LINE
  8
0
 10
42.1552
 20
46.8181
 11
31.5
 21
54.5596
  0
LINE
  8
0
 10
31.5
 20
54.5596
 11
19.4681
 21
59.9165
  0
LINE
  8
0
 10
19.4681
 20
59.9165
 11
7.90063
 21
63.6696
  0
LINE
  8
0
 10
7.90063
 20
63.6696
 11
1.49178
 21
64.3432
  0
LINE
  8
0
 10
1.49178
 20
64.3432
 11
1.42657
 21
64.0365
  0
LINE
  8
0
 10
1.42657
 20
64.0365
 11
1.29903
 21
63.75
  0
LINE
  8
0
 10
1.29903
 20
63.75
 11
1.11472
 21
63.4963
  0
LINE
  8
0
 10
1.11472
 20
63.4963
 11
0.881668
 21
63.2865
  0
LINE
  8
0
 10
0.881668
 20
63.2865
 11
0.610092
 21
63.1297
  0
LINE
  8
0
 10
0.610092
 20
63.1297
 11
0.311859
 21
63.0328
  0
LINE
  8
0
 10
0.311859
 20
63.0328
 11
0.0499878
 21
63.0052
  0
LINE
  8
0
 10
0.0499878
 20
63.0052
 11
0.0499878
 21
64.45
  0
LINE
  8
0
 10
0.0499878
 20
64.45
 11
0.475601
 21
64.45
  0
LINE
  8
0
 10
0.475601
 20
64.45
 11
0
 21
64.5
  0
LINE
  8
0
 10
0
 20
64.5
 11
-0.475601
 21
64.45
  0
LINE
  8
0
 10
-0.475601
 20
64.45
 11
-0.0499878
 21
64.45
  0
LINE
  8
0
 10
-0.0499878
 20
64.45
 11
-0.0499878
 21
63.0052
  0
LINE
  8
0
 10
-0.0499878
 20
63.0052
 11
-0.311859
 21
63.0328
  0
LINE
  8
0
 10
-0.311859
 20
63.0328
 11
-0.610092
 21
63.1297
  0
LINE
  8
0
 10
-0.610092
 20
63.1297
 11
-0.881668
 21
63.2865
  0
LINE
  8
0
 10
-0.881668
 20
63.2865
 11
-1.11472
 21
63.4963
  0
LINE
  8
0
 10
-1.11472
 20
63.4963
 11
-1.29903
 21
63.75
  0
LINE
  8
0
 10
-1.29903
 20
63.75
 11
-1.42657
 21
64.0365
  0
LINE
  8
0
 10
-1.42657
 20
64.0365
 11
-1.49178
 21
64.3432
  0
LINE
  8
0
 10
-1.49178
 20
64.3432
 11
-7.90063
 21
63.6696
  0
LINE
  8
0
 10
-7.90063
 20
63.6696
 11
-19.4681
 21
59.9165
  0
LINE
  8
0
 10
-19.4681
 20
59.9165
 11
-31.5
 21
54.5596
  0
LINE
  8
0
 10
-31.5
 20
54.5596
 11
-42.1552
 21
46.8181
  0
LINE
  8
0
 10
-42.1552
 20
46.8181
 11
-50.9681
 21
37.0305
  0
LINE
  8
0
 10
-50.9681
 20
37.0305
 11
-57.5534
 21
25.6244
  0
LINE
  8
0
 10
-57.5534
 20
25.6244
 11
-61.2147
 21
15.456
  0
LINE
  8
0
 10
-61.2147
 20
15.456
 11
-63.6696
 21
7.90063
  0
LINE
  8
0
 10
-63.6696
 20
7.90063
 11
-64.3432
 21
1.49178
  0
LINE
  8
0
 10
-64.3432
 20
1.49178
 11
-64.0365
 21
1.42657
  0
LINE
  8
0
 10
-64.0365
 20
1.42657
 11
-63.75
 21
1.29903
  0
LINE
  8
0
 10
-63.75
 20
1.29903
 11
-63.4963
 21
1.11472
  0
LINE
  8
0
 10
-63.4963
 20
1.11472
 11
-63.2865
 21
0.881668
  0
LINE
  8
0
 10
-63.2865
 20
0.881668
 11
-63.1297
 21
0.610092
  0
LINE
  8
0
 10
-63.1297
 20
0.610092
 11
-63.0328
 21
0.311859
  0
LINE
  8
0
 10
-63.0328
 20
0.311859
 11
-63.0052
 21
0.0499878
  0
LINE
  8
0
 10
-63.0052
 20
0.0499878
 11
-64.45
 21
0.0499878
  0
LINE
  8
0
 10
-64.45
 20
0.0499878
 11
-64.45
 21
0.475601
  0
LINE
  8
0
 10
-64.45
 20
0.475601
 11
-64.5
 21
0
  0
LINE
  8
0
 10
-64.5
 20
0
 11
-64.45
 21
-0.475601
  0
LINE
  8
0
 10
-64.45
 20
-0.475601
 11
-64.45
 21
-0.0499878
  0
LINE
  8
0
 10
-64.45
 20
-0.0499878
 11
-63.0052
 21
-0.0499878
  0
LINE
  8
0
 10
-63.0052
 20
-0.0499878
 11
-63.0328
 21
-0.311859
  0
LINE
  8
0
 10
-63.0328
 20
-0.311859
 11
-63.1297
 21
-0.610092
  0
LINE
  8
0
 10
-63.1297
 20
-0.610092
 11
-63.2865
 21
-0.881668
  0
LINE
  8
0
 10
-63.2865
 20
-0.881668
 11
-63.4963
 21
-1.11472
  0
LINE
  8
0
 10
-63.4963
 20
-1.11472
 11
-63.75
 21
-1.29903
  0
LINE
  8
0
 10
-63.75
 20
-1.29903
 11
-64.0365
 21
-1.42657
  0
LINE
  8
0
 10
-64.0365
 20
-1.42657
 11
-64.3432
 21
-1.49178
  0
LINE
  8
0
 10
-64.3432
 20
-1.49178
 11
-63.6696
 21
-7.90063
  0
LINE
  8
0
 10
-63.6696
 20
-7.90063
 11
-61.2147
 21
-15.456
  0
LINE
  8
0
 10
-61.2147
 20
-15.456
 11
-57.5534
 21
-25.6244
  0
LINE
  8
0
 10
-57.5534
 20
-25.6244
 11
-50.9681
 21
-37.0305
  0
LINE
  8
0
 10
-50.9681
 20
-37.0305
 11
-42.1552
 21
-46.8181
  0
LINE
  8
0
 10
-42.1552
 20
-46.8181
 11
-31.5
 21
-54.5596
  0
LINE
  8
0
 10
-31.5
 20
-54.5596
 11
-19.4681
 21
-59.9165
  0
LINE
  8
0
 10
-19.4681
 20
-59.9165
 11
-7.90063
 21
-63.6696
  0
LINE
  8
0
 10
-7.90063
 20
-63.6696
 11
-1.49178
 21
-64.3432
  0
LINE
  8
0
 10
-1.49178
 20
-64.3432
 11
-1.42657
 21
-64.0365
  0
LINE
  8
0
 10
-1.42657
 20
-64.0365
 11
-1.29903
 21
-63.75
  0
LINE
  8
0
 10
-1.29903
 20
-63.75
 11
-1.11472
 21
-63.4963
  0
LINE
  8
0
 10
-1.11472
 20
-63.4963
 11
-0.881668
 21
-63.2865
  0
LINE
  8
0
 10
-0.881668
 20
-63.2865
 11
-0.610092
 21
-63.1297
  0
LINE
  8
0
 10
-0.610092
 20
-63.1297
 11
-0.311859
 21
-63.0328
  0
LINE
  8
0
 10
-0.311859
 20
-63.0328
 11
-0.0499878
 21
-63.0052
  0
LINE
  8
0
 10
-0.0499878
 20
-63.0052
 11
-0.0499878
 21
-64.45
  0
LINE
  8
0
 10
-0.0499878
 20
-64.45
 11
-0.475601
 21
-64.45
  0
LINE
  8
0
 10
-0.475601
 20
-64.45
 11
0
 21
-64.5
  0
LINE
  8
0
 10
0
 20
-64.5
 11
0.475601
 21
-64.45
  0
ENDSEC
  0
SECTION
  2
OBJECTS
  0
DICTIONARY
  0
ENDSEC
  0
EOF
